<?xml version="1.0" encoding="iso-8859-1"?>
<!-- Generator: Adobe Illustrator 26.0.1, SVG Export Plug-In . SVG Version: 6.00 Build 0)  -->
<svg version="1.1" id="Layer_1" xmlns="http://www.w3.org/2000/svg" xmlns:xlink="http://www.w3.org/1999/xlink" x="0px" y="0px"
	 viewBox="0 0 500 500" style="enable-background:new 0 0 500 500;" xml:space="preserve">
<g id="watermark_1_">
	<g>
		<g id="watermark" style="opacity:0.61;">
			<g>
				<g>
					<g>
						<g>
							<polygon style="fill:#FFFFFF;" points="213.765,461.172 208.204,474.017 205.268,474.017 199.726,461.172 202.938,461.172 
								206.846,470.347 210.81,461.172 							"/>
						</g>
						<g>
							<path style="fill:#FFFFFF;" d="M223.507,469.741h-7.469c0.275,1.23,1.321,1.982,2.826,1.982c1.046,0,1.798-0.312,2.477-0.954
								l1.523,1.651c-0.917,1.046-2.294,1.597-4.074,1.597c-3.413,0-5.634-2.147-5.634-5.083c0-2.954,2.257-5.083,5.267-5.083
								c2.899,0,5.138,1.945,5.138,5.12C223.562,469.191,223.526,469.503,223.507,469.741 M216.002,468.071h4.863
								c-0.202-1.248-1.138-2.055-2.422-2.055C217.139,466.016,216.204,466.805,216.002,468.071"/>
						</g>
						<g>
							<path style="fill:#FFFFFF;" d="M224.735,468.934c0-2.973,2.294-5.083,5.505-5.083c2.074,0,3.707,0.899,4.423,2.514
								l-2.22,1.193c-0.532-0.936-1.321-1.358-2.221-1.358c-1.45,0-2.587,1.009-2.587,2.734c0,1.725,1.138,2.734,2.587,2.734
								c0.899,0,1.688-0.404,2.221-1.358l2.22,1.211c-0.716,1.578-2.349,2.495-4.423,2.495
								C227.029,474.017,224.735,471.907,224.735,468.934"/>
						</g>
						<g>
							<path style="fill:#FFFFFF;" d="M242.828,473.393c-0.587,0.422-1.45,0.624-2.331,0.624c-2.33,0-3.688-1.193-3.688-3.542
								v-4.055h-1.523v-2.202h1.523v-2.404h2.863v2.404h2.459v2.202h-2.459v4.019c0,0.844,0.458,1.303,1.229,1.303
								c0.422,0,0.844-0.128,1.156-0.367L242.828,473.393z"/>
						</g>
					</g>
					<g>
						<path style="fill:#FFFFFF;" d="M262.474,463.997v2.643c-0.238-0.018-0.422-0.037-0.642-0.037
							c-1.578,0-2.624,0.862-2.624,2.753v4.661h-2.863v-9.873h2.734v1.303C259.776,464.493,260.951,463.997,262.474,463.997"/>
					</g>
					<g>
						<path style="fill:#FFFFFF;" d="M263.299,472.53l1.009-2.239c1.083,0.789,2.697,1.339,4.239,1.339
							c1.762,0,2.477-0.587,2.477-1.376c0-2.404-7.469-0.752-7.469-5.524c0-2.184,1.762-4,5.413-4c1.615,0,3.267,0.385,4.459,1.138
							l-0.918,2.257c-1.193-0.679-2.422-1.009-3.56-1.009c-1.761,0-2.44,0.66-2.44,1.468c0,2.367,7.468,0.734,7.468,5.45
							c0,2.147-1.78,3.982-5.45,3.982C266.492,474.017,264.437,473.411,263.299,472.53"/>
					</g>
					<g>
						<path style="fill:#FFFFFF;" d="M285.428,469.741h-7.469c0.275,1.23,1.321,1.982,2.826,1.982c1.046,0,1.798-0.312,2.477-0.954
							l1.523,1.651c-0.918,1.046-2.294,1.597-4.074,1.597c-3.413,0-5.634-2.147-5.634-5.083c0-2.954,2.257-5.083,5.267-5.083
							c2.9,0,5.138,1.945,5.138,5.12C285.484,469.191,285.447,469.503,285.428,469.741 M277.923,468.071h4.863
							c-0.202-1.248-1.138-2.055-2.422-2.055C279.061,466.016,278.125,466.805,277.923,468.071"/>
					</g>
					<g>
						<path style="fill:#FFFFFF;" d="M297.007,469.741h-7.469c0.275,1.23,1.321,1.982,2.826,1.982c1.046,0,1.798-0.312,2.477-0.954
							l1.523,1.651c-0.918,1.046-2.294,1.597-4.074,1.597c-3.413,0-5.634-2.147-5.634-5.083c0-2.954,2.257-5.083,5.267-5.083
							c2.899,0,5.138,1.945,5.138,5.12C297.062,469.191,297.025,469.503,297.007,469.741 M289.501,468.071h4.863
							c-0.202-1.248-1.138-2.055-2.422-2.055C290.639,466.016,289.703,466.805,289.501,468.071"/>
					</g>
					<g>
						<polygon style="fill:#FFFFFF;" points="303.208,470.145 301.831,471.503 301.831,474.017 298.969,474.017 298.969,460.401 
							301.831,460.401 301.831,468.108 306.016,464.144 309.429,464.144 305.318,468.328 309.796,474.017 306.327,474.017 						"/>
					</g>
					<g>
						<path style="fill:#FFFFFF;" d="M256.601,475.359L256.601,475.359l-2.86-2.86c-0.435,0.508-0.953,0.943-1.534,1.284
							c-0.092,0.069-0.186,0.136-0.283,0.199l3.027,3.027c0.456,0.456,1.195,0.456,1.65,0
							C257.057,476.554,257.057,475.815,256.601,475.359"/>
					</g>
					<g>
						<path style="fill:#FFFFFF;" d="M249.984,463.244c0.221-0.173,0.495-0.281,0.797-0.281c0.042,0,0.083,0.002,0.124,0.006
							c-0.214-0.156-0.478-0.249-0.764-0.249c-0.395,0-0.744,0.18-0.981,0.458c-0.051,0-0.1,0.006-0.151,0.008
							c0.039-0.077,0.064-0.162,0.064-0.255c0-0.234-0.143-0.434-0.346-0.519c0.087,0.126,0.138,0.279,0.138,0.445
							c0,0.122-0.031,0.237-0.081,0.341c-2.811,0.201-5.03,2.539-5.03,5.4c0,2.993,2.426,5.42,5.42,5.42
							c2.993,0,5.42-2.426,5.42-5.42C254.595,465.879,252.593,463.635,249.984,463.244 M247.983,464.656
							c0.435,0,0.844,0.112,1.199,0.309c0.374-0.245,0.82-0.387,1.299-0.387c0.711,0,1.348,0.312,1.784,0.806
							c-0.435-0.379-1.004-0.61-1.627-0.61c-0.449,0-0.87,0.12-1.234,0.329c-0.079,0.046-0.156,0.096-0.229,0.15
							c-0.065-0.048-0.133-0.093-0.204-0.134c-0.369-0.219-0.8-0.344-1.26-0.344c-0.3,0-0.588,0.054-0.854,0.152
							C247.196,464.754,247.578,464.656,247.983,464.656 M251.772,469.098c0.115,0.305,0.181,0.634,0.181,0.979
							c0,1.534-1.244,2.777-2.778,2.777c-1.534,0-2.777-1.243-2.777-2.777c0-0.345,0.066-0.674,0.181-0.979
							c-0.62-0.382-1.035-1.064-1.035-1.846c0-1.197,0.971-2.168,2.168-2.168c0.565,0,1.078,0.218,1.463,0.572
							c0.386-0.354,0.899-0.572,1.464-0.572c1.197,0,2.168,0.971,2.168,2.168C252.807,468.034,252.392,468.716,251.772,469.098"/>
					</g>
					<g>
						<path style="fill:#FFFFFF;" d="M251.666,467.061c0,0.497-0.404,0.901-0.901,0.901c-0.497,0-0.901-0.404-0.901-0.901
							s0.404-0.901,0.901-0.901c0.101,0,0.197,0.017,0.287,0.047c-0.03,0.062-0.045,0.132-0.045,0.204
							c0,0.273,0.221,0.494,0.494,0.494c0.05,0,0.099-0.008,0.146-0.022C251.66,466.941,251.666,467,251.666,467.061"/>
					</g>
					<g>
						<path style="fill:#FFFFFF;" d="M248.255,467.061c0,0.376-0.305,0.681-0.681,0.681c-0.376,0-0.681-0.305-0.681-0.681
							s0.305-0.681,0.681-0.681c0.076,0,0.149,0.013,0.217,0.035c-0.023,0.047-0.034,0.1-0.034,0.155
							c0,0.206,0.167,0.374,0.374,0.374c0.038,0,0.075-0.006,0.11-0.017C248.25,466.97,248.255,467.015,248.255,467.061"/>
					</g>
					<g>
						<g>
							<g>
								<rect x="242.908" y="467.83" style="fill:#FFFFFF;" width="0.616" height="0.616"/>
							</g>
							<g>
								<rect x="254.827" y="467.83" style="fill:#FFFFFF;" width="0.616" height="0.616"/>
							</g>
							<g>
								<path style="fill:#FFFFFF;" d="M255.205,468.082h-0.14c0-3.248-2.642-5.89-5.89-5.89c-3.248,0-5.89,2.642-5.89,5.89h-0.14
									c0-1.611,0.627-3.125,1.766-4.264c1.139-1.139,2.653-1.766,4.264-1.766c1.611,0,3.125,0.627,4.264,1.766
									C254.578,464.957,255.205,466.471,255.205,468.082"/>
							</g>
						</g>
						<g>
							<rect x="248.868" y="461.814" style="fill:#FFFFFF;" width="0.616" height="0.616"/>
						</g>
						<g>
							<rect x="244.95" y="462.052" style="fill:#FFFFFF;" width="8.45" height="0.14"/>
						</g>
						<g>
							<path style="fill:#FFFFFF;" d="M245.174,462.15c0,0.108-0.088,0.196-0.196,0.196c-0.108,0-0.196-0.088-0.196-0.196
								c0-0.108,0.088-0.196,0.196-0.196C245.086,461.954,245.174,462.042,245.174,462.15"/>
						</g>
						<g>
							<path style="fill:#FFFFFF;" d="M253.596,462.15c0,0.108-0.088,0.196-0.196,0.196c-0.108,0-0.196-0.088-0.196-0.196
								c0-0.108,0.088-0.196,0.196-0.196C253.509,461.954,253.596,462.042,253.596,462.15"/>
						</g>
					</g>
				</g>
				<g>
					<path style="fill:#FFFFFF;" d="M314.356,473.409c0,1.559-2.364,1.559-2.364,0C311.993,471.851,314.356,471.851,314.356,473.409
						z"/>
				</g>
				<g>
					<g>
						<g>
							<path style="fill:#FFFFFF;" d="M161.739,466.549l1.772,6.088l1.855-6.088h2.215l-2.823,8.14h-2.33l-0.837-2.396l-0.722-2.708
								l-0.722,2.708l-0.837,2.396h-2.33l-2.839-8.14h2.231l1.855,6.088l1.756-6.088H161.739z"/>
						</g>
						<g>
							<path style="fill:#FFFFFF;" d="M176.713,466.549l1.772,6.088l1.855-6.088h2.215l-2.823,8.14h-2.33l-0.837-2.396l-0.722-2.708
								l-0.722,2.708l-0.837,2.396h-2.33l-2.839-8.14h2.231l1.855,6.088l1.756-6.088H176.713z"/>
						</g>
						<g>
							<path style="fill:#FFFFFF;" d="M191.687,466.549l1.772,6.088l1.855-6.088h2.215l-2.823,8.14h-2.33l-0.837-2.396l-0.722-2.708
								l-0.722,2.708l-0.837,2.396h-2.33l-2.839-8.14h2.231l1.855,6.088l1.756-6.088H191.687z"/>
						</g>
					</g>
					<g>
						<path style="fill:#FFFFFF;" d="M200.908,473.52c0,1.559-2.364,1.559-2.364,0C198.545,471.962,200.908,471.962,200.908,473.52z
							"/>
					</g>
					<g>
						<path style="fill:#FFFFFF;" d="M322.71,473.409c-0.935,0.919-1.919,1.28-3.117,1.28c-2.346,0-4.3-1.411-4.3-4.282
							s1.953-4.284,4.3-4.284c1.149,0,2.035,0.329,2.921,1.199l-1.264,1.329c-0.476-0.428-1.066-0.64-1.623-0.64
							c-1.346,0-2.33,0.985-2.33,2.396c0,1.542,1.05,2.362,2.297,2.362c0.64,0,1.28-0.18,1.772-0.672L322.71,473.409z"/>
					</g>
					<g>
						<path style="fill:#FFFFFF;" d="M331.805,470.472c0,2.33-1.591,4.217-4.217,4.217c-2.626,0-4.201-1.887-4.201-4.217
							c0-2.314,1.609-4.217,4.185-4.217C330.149,466.255,331.805,468.158,331.805,470.472z M325.389,470.472
							c0,1.231,0.739,2.38,2.199,2.38c1.46,0,2.199-1.149,2.199-2.38c0-1.215-0.854-2.396-2.199-2.396
							C326.144,468.077,325.389,469.258,325.389,470.472z"/>
					</g>
					<g>
						<path style="fill:#FFFFFF;" d="M338.572,474.689v-4.332c0-1.068-0.559-2.035-1.658-2.035c-1.082,0-1.722,0.967-1.722,2.035
							v4.332h-2.003v-8.107h1.855l0.148,0.985c0.426-0.82,1.362-1.116,2.133-1.116c0.969,0,1.937,0.394,2.396,1.51
							c0.723-1.149,1.658-1.478,2.708-1.478c2.297,0,3.43,1.412,3.43,3.84v4.365h-2.003v-4.365c0-1.066-0.442-1.97-1.526-1.97
							c-1.082,0-1.756,0.935-1.756,2.003v4.332H338.572z"/>
					</g>
				</g>
			</g>
		</g>
		<g style="opacity:0.61;">
			<g>
				<g>
					<path style="fill:#FFFFFF;" d="M345.988,431.299c-0.006-1.224-0.959-2.121-2.189-2.14c-0.924-0.014-0.832,0.12-0.834-0.867
						c-0.003-1.097-0.007-2.194,0.003-3.292c0.003-0.379-0.112-0.691-0.362-0.976c-2.342-2.668-4.678-5.342-7.019-8.011
						c-0.12-0.137-0.275-0.244-0.414-0.366c-6.214,0-12.427,0-18.641,0c-0.794,0.293-1.14,0.868-1.138,1.709
						c0.01,3.748,0.004,7.496,0.004,11.243c0,0.556-0.003,0.589-0.55,0.551c-1.497-0.102-2.516,0.986-2.497,2.492
						c0.044,3.476,0.013,6.953,0.014,10.429c0.001,1.58,0.867,2.443,2.45,2.449c0.582,0.002,0.582,0.002,0.582,0.6
						c0,2.219-0.001,4.438,0.001,6.657c0.001,1.192,0.58,1.771,1.768,1.771c8.013,0.001,16.027,0.001,24.04,0
						c1.168,0,1.755-0.583,1.757-1.745c0.002-2.256,0-4.512,0.001-6.768c0-0.512,0.002-0.511,0.52-0.515
						c0.271-0.002,0.541,0.008,0.809-0.058c0.996-0.246,1.69-1.044,1.694-2.069C346.003,438.696,346.005,434.997,345.988,431.299z
						 M317.537,417.162c5.337,0,10.674,0,16.01,0c0.548,0,0.554,0.007,0.554,0.561c0.001,2.243-0.001,4.486,0.001,6.73
						c0.001,0.811,0.249,1.059,1.06,1.059c1.91,0.001,3.821,0,5.731,0.001c0.458,0,0.479,0.021,0.481,0.483
						c0.003,0.887,0.002,1.775,0,2.662c-0.001,0.477-0.024,0.498-0.504,0.499c-3.895,0.001-7.79,0-11.684,0
						c-3.882,0-7.765,0-11.647,0c-0.55,0-0.552-0.001-0.552-0.561c-0.001-3.624-0.001-7.247,0-10.871
						C316.987,417.166,316.991,417.162,317.537,417.162z M340.822,451.579c-3.883,0.001-7.766,0-11.65,0c-3.871,0-7.742,0-11.613,0
						c-0.572,0-0.574-0.002-0.574-0.579c-0.001-1.997-0.001-3.994,0.001-5.991c0-0.464,0.023-0.486,0.478-0.487
						c7.803-0.001,15.607-0.001,23.41,0c0.478,0,0.499,0.02,0.499,0.503c0.002,1.997,0.001,3.994,0,5.991
						C341.375,451.574,341.37,451.579,340.822,451.579z"/>
				</g>
				<g>
					<g>
						<rect x="327.418" y="417.053" style="fill:#FFFFFF;" width="1.757" height="1.054"/>
					</g>
					<g>
						<rect x="325.662" y="418.107" style="fill:#FFFFFF;" width="1.757" height="1.054"/>
					</g>
					<g>
						<rect x="327.418" y="419.161" style="fill:#FFFFFF;" width="1.757" height="1.054"/>
					</g>
					<g>
						<rect x="325.662" y="420.215" style="fill:#FFFFFF;" width="1.757" height="1.054"/>
					</g>
					<g>
						<rect x="327.418" y="421.269" style="fill:#FFFFFF;" width="1.757" height="1.054"/>
					</g>
					<g>
						<rect x="325.662" y="422.323" style="fill:#FFFFFF;" width="1.757" height="1.054"/>
					</g>
					<g>
						<rect x="327.418" y="423.378" style="fill:#FFFFFF;" width="1.757" height="1.054"/>
					</g>
					<g>
						<rect x="325.662" y="424.432" style="fill:#FFFFFF;" width="1.757" height="1.054"/>
					</g>
					<g>
						<rect x="327.418" y="425.486" style="fill:#FFFFFF;" width="1.757" height="1.054"/>
					</g>
					<g>
						<rect x="325.662" y="426.54" style="fill:#FFFFFF;" width="1.757" height="1.054"/>
					</g>
					<g>
						<rect x="327.418" y="427.594" style="fill:#FFFFFF;" width="1.757" height="1.054"/>
					</g>
					<g>
						<rect x="325.662" y="428.648" style="fill:#FFFFFF;" width="1.757" height="1.054"/>
					</g>
				</g>
			</g>
			<g>
				<path style="fill:#FFFFFF;" d="M187.637,431.299c-0.006-1.224-0.959-2.121-2.189-2.14c-0.924-0.014-0.832,0.12-0.834-0.867
					c-0.003-1.097-0.007-2.194,0.003-3.292c0.003-0.379-0.112-0.691-0.362-0.976c-2.342-2.668-4.678-5.342-7.019-8.011
					c-0.12-0.137-0.275-0.244-0.414-0.366c-6.214,0-12.427,0-18.641,0c-0.794,0.293-1.14,0.868-1.138,1.709
					c0.01,3.748,0.004,7.496,0.004,11.243c0,0.556-0.003,0.589-0.55,0.551c-1.497-0.102-2.516,0.986-2.497,2.492
					c0.044,3.476,0.013,6.953,0.014,10.429c0.001,1.58,0.867,2.443,2.45,2.449c0.582,0.002,0.582,0.002,0.582,0.6
					c0,2.219-0.001,4.438,0.001,6.657c0.001,1.192,0.58,1.771,1.768,1.771c8.013,0.001,16.027,0.001,24.04,0
					c1.168,0,1.755-0.583,1.757-1.745c0.002-2.256,0-4.512,0.001-6.768c0-0.512,0.002-0.511,0.52-0.515
					c0.271-0.002,0.541,0.008,0.809-0.058c0.996-0.246,1.69-1.044,1.694-2.069C187.652,438.696,187.655,434.997,187.637,431.299z
					 M159.187,417.162c5.337,0,10.674,0,16.01,0c0.548,0,0.554,0.007,0.554,0.561c0.001,2.243-0.001,4.486,0.001,6.73
					c0.001,0.811,0.249,1.059,1.06,1.059c1.91,0.001,3.821,0,5.731,0.001c0.458,0,0.479,0.021,0.481,0.483
					c0.003,0.887,0.002,1.775,0,2.662c-0.001,0.477-0.024,0.498-0.504,0.499c-3.895,0.001-7.79,0-11.684,0
					c-3.882,0-7.765,0-11.647,0c-0.55,0-0.552-0.001-0.552-0.561c-0.001-3.624-0.001-7.247,0-10.871
					C158.636,417.166,158.64,417.162,159.187,417.162z M182.472,451.579c-3.883,0.001-7.766,0-11.65,0c-3.871,0-7.742,0-11.613,0
					c-0.572,0-0.574-0.002-0.574-0.579c-0.001-1.997-0.001-3.994,0.001-5.991c0-0.464,0.023-0.486,0.478-0.487
					c7.803-0.001,15.607-0.001,23.41,0c0.478,0,0.499,0.02,0.499,0.503c0.002,1.997,0.001,3.994,0,5.991
					C183.024,451.574,183.019,451.579,182.472,451.579z"/>
			</g>
			<g>
				<path style="fill:#FFFFFF;" d="M159.779,440.669v-7.897h2.779c0.375,0,0.726,0.061,1.053,0.182
					c0.327,0.121,0.612,0.292,0.855,0.513c0.242,0.221,0.434,0.483,0.573,0.789c0.14,0.305,0.21,0.642,0.21,1.009
					c0,0.375-0.07,0.715-0.21,1.02c-0.14,0.305-0.331,0.568-0.573,0.789c-0.243,0.221-0.528,0.392-0.855,0.513
					c-0.327,0.121-0.678,0.182-1.053,0.182h-1.29v2.901H159.779z M162.58,436.356c0.39,0,0.684-0.111,0.882-0.331
					c0.199-0.22,0.298-0.474,0.298-0.761c0-0.14-0.024-0.276-0.072-0.408c-0.048-0.132-0.121-0.248-0.221-0.347
					c-0.099-0.099-0.223-0.178-0.37-0.237c-0.147-0.059-0.32-0.089-0.518-0.089h-1.312v2.173H162.58z"/>
				<path style="fill:#FFFFFF;" d="M166.308,432.771h1.731l3.177,5.294h0.088l-0.088-1.522v-3.772h1.478v7.897h-1.566l-3.353-5.592
					h-0.088l0.088,1.522v4.07h-1.467V432.771z"/>
				<path style="fill:#FFFFFF;" d="M177.922,436.334h3.872c0.022,0.089,0.04,0.195,0.055,0.32c0.014,0.125,0.022,0.25,0.022,0.375
					c0,0.507-0.077,0.985-0.231,1.434c-0.154,0.449-0.397,0.849-0.728,1.202c-0.353,0.375-0.776,0.666-1.268,0.871
					c-0.493,0.206-1.055,0.309-1.688,0.309c-0.574,0-1.114-0.103-1.622-0.309c-0.507-0.206-0.948-0.492-1.323-0.86
					c-0.375-0.367-0.673-0.803-0.894-1.307c-0.221-0.504-0.331-1.053-0.331-1.649c0-0.595,0.11-1.145,0.331-1.649
					c0.221-0.504,0.518-0.939,0.894-1.307c0.375-0.367,0.816-0.654,1.323-0.86c0.507-0.206,1.048-0.309,1.622-0.309
					c0.64,0,1.211,0.11,1.715,0.331c0.504,0.221,0.935,0.526,1.296,0.915l-1.025,1.004c-0.258-0.272-0.544-0.48-0.861-0.623
					c-0.316-0.143-0.695-0.215-1.136-0.215c-0.361,0-0.703,0.065-1.026,0.193c-0.324,0.129-0.607,0.311-0.85,0.546
					c-0.242,0.235-0.436,0.52-0.579,0.855c-0.143,0.335-0.215,0.708-0.215,1.119c0,0.412,0.072,0.785,0.215,1.12
					c0.143,0.335,0.338,0.62,0.584,0.855c0.246,0.235,0.531,0.418,0.855,0.546c0.323,0.129,0.669,0.193,1.037,0.193
					c0.419,0,0.773-0.061,1.064-0.182c0.29-0.121,0.538-0.278,0.744-0.469c0.148-0.132,0.275-0.3,0.381-0.502
					c0.106-0.202,0.189-0.428,0.248-0.678h-2.482V436.334z"/>
			</g>
			<g>
				<path style="fill:#FFFFFF;" d="M224.019,431.299c-0.006-1.224-0.959-2.121-2.189-2.14c-0.924-0.014-0.832,0.12-0.834-0.867
					c-0.003-1.097-0.007-2.194,0.003-3.292c0.003-0.379-0.112-0.691-0.362-0.976c-2.342-2.668-4.678-5.342-7.019-8.011
					c-0.12-0.137-0.275-0.244-0.414-0.366c-6.214,0-12.427,0-18.641,0c-0.794,0.293-1.14,0.868-1.138,1.709
					c0.01,3.748,0.004,7.496,0.004,11.243c0,0.556-0.003,0.589-0.55,0.551c-1.497-0.102-2.516,0.986-2.497,2.492
					c0.044,3.476,0.013,6.953,0.014,10.429c0.001,1.58,0.867,2.443,2.45,2.449c0.582,0.002,0.582,0.002,0.582,0.6
					c0,2.219-0.001,4.438,0.001,6.657c0.001,1.192,0.58,1.771,1.768,1.771c8.013,0.001,16.027,0.001,24.04,0
					c1.168,0,1.755-0.583,1.757-1.745c0.002-2.256,0-4.512,0.001-6.768c0-0.512,0.002-0.511,0.52-0.515
					c0.271-0.002,0.541,0.008,0.809-0.058c0.997-0.246,1.69-1.044,1.694-2.069C224.034,438.696,224.036,434.997,224.019,431.299z
					 M195.568,417.162c5.337,0,10.674,0,16.01,0c0.548,0,0.554,0.007,0.554,0.561c0.001,2.243-0.001,4.486,0.001,6.73
					c0.001,0.811,0.249,1.059,1.06,1.059c1.91,0.001,3.821,0,5.731,0.001c0.458,0,0.479,0.021,0.481,0.483
					c0.003,0.887,0.002,1.775,0,2.662c-0.001,0.477-0.024,0.498-0.504,0.499c-3.895,0.001-7.79,0-11.684,0
					c-3.882,0-7.765,0-11.647,0c-0.55,0-0.552-0.001-0.552-0.561c-0.001-3.624-0.001-7.247,0-10.871
					C195.018,417.166,195.022,417.162,195.568,417.162z M218.854,451.579c-3.883,0.001-7.766,0-11.65,0c-3.871,0-7.742,0-11.613,0
					c-0.572,0-0.574-0.002-0.574-0.579c-0.001-1.997-0.001-3.994,0.001-5.991c0-0.464,0.023-0.486,0.478-0.487
					c7.803-0.001,15.607-0.001,23.41,0c0.478,0,0.499,0.02,0.499,0.503c0.002,1.997,0.001,3.994,0,5.991
					C219.406,451.574,219.401,451.579,218.854,451.579z"/>
			</g>
			<g>
				<path style="fill:#FFFFFF;" d="M205.111,432.771h1.699l2.967,7.897h-1.644l-0.651-1.886h-3.044l-0.651,1.886h-1.643
					L205.111,432.771z M206.997,437.415l-0.706-1.974l-0.287-0.96h-0.088l-0.287,0.96l-0.706,1.974H206.997z"/>
				<path style="fill:#FFFFFF;" d="M211.331,434.536c-0.125,0-0.245-0.024-0.359-0.072c-0.114-0.048-0.213-0.114-0.298-0.199
					c-0.084-0.084-0.151-0.182-0.198-0.292c-0.048-0.11-0.072-0.232-0.072-0.364s0.024-0.254,0.072-0.364
					c0.048-0.11,0.114-0.208,0.198-0.292c0.084-0.084,0.184-0.151,0.298-0.198c0.114-0.048,0.233-0.072,0.359-0.072
					c0.257,0,0.478,0.09,0.662,0.27c0.184,0.181,0.276,0.399,0.276,0.656s-0.092,0.476-0.276,0.656
					C211.809,434.446,211.589,434.536,211.331,434.536z M210.615,440.669v-5.404h1.445v5.404H210.615z"/>
			</g>
			<g>
				<path style="fill:#FFFFFF;" d="M261.044,431.299c-0.006-1.224-0.959-2.121-2.189-2.14c-0.924-0.014-0.832,0.12-0.834-0.867
					c-0.003-1.097-0.007-2.194,0.003-3.292c0.003-0.379-0.112-0.691-0.362-0.976c-2.342-2.668-4.678-5.342-7.019-8.011
					c-0.12-0.137-0.275-0.244-0.414-0.366c-6.214,0-12.427,0-18.641,0c-0.794,0.293-1.14,0.868-1.138,1.709
					c0.01,3.748,0.004,7.496,0.004,11.243c0,0.556-0.003,0.589-0.55,0.551c-1.497-0.102-2.516,0.986-2.497,2.492
					c0.044,3.476,0.013,6.953,0.014,10.429c0.001,1.58,0.867,2.443,2.45,2.449c0.582,0.002,0.582,0.002,0.582,0.6
					c0,2.219-0.001,4.438,0.001,6.657c0.001,1.192,0.58,1.771,1.768,1.771c8.013,0.001,16.027,0.001,24.04,0
					c1.168,0,1.755-0.583,1.757-1.745c0.002-2.256,0-4.512,0.001-6.768c0-0.512,0.002-0.511,0.52-0.515
					c0.271-0.002,0.541,0.008,0.809-0.058c0.996-0.246,1.69-1.044,1.694-2.069C261.059,438.696,261.061,434.997,261.044,431.299z
					 M232.593,417.162c5.337,0,10.674,0,16.01,0c0.548,0,0.554,0.007,0.554,0.561c0.001,2.243-0.001,4.486,0.001,6.73
					c0.001,0.811,0.249,1.059,1.06,1.059c1.91,0.001,3.821,0,5.731,0.001c0.458,0,0.479,0.021,0.481,0.483
					c0.003,0.887,0.002,1.775,0,2.662c-0.001,0.477-0.024,0.498-0.504,0.499c-3.895,0.001-7.79,0-11.684,0
					c-3.882,0-7.765,0-11.647,0c-0.55,0-0.552-0.001-0.552-0.561c-0.001-3.624-0.001-7.247,0-10.871
					C232.042,417.166,232.047,417.162,232.593,417.162z M255.878,451.579c-3.883,0.001-7.766,0-11.65,0c-3.871,0-7.742,0-11.613,0
					c-0.572,0-0.574-0.002-0.574-0.579c-0.001-1.997-0.001-3.994,0.001-5.991c0-0.464,0.023-0.486,0.478-0.487
					c7.803-0.001,15.607-0.001,23.41,0c0.478,0,0.499,0.02,0.499,0.503c0.002,1.997,0.001,3.994,0,5.991
					C256.431,451.574,256.426,451.579,255.878,451.579z"/>
			</g>
			<g>
				<path style="fill:#FFFFFF;" d="M236.361,440.845c-0.338,0-0.662-0.048-0.971-0.143c-0.309-0.095-0.592-0.239-0.849-0.43
					c-0.257-0.191-0.481-0.425-0.673-0.7c-0.191-0.276-0.342-0.597-0.452-0.965l1.401-0.551c0.103,0.397,0.283,0.726,0.54,0.987
					c0.257,0.261,0.596,0.392,1.015,0.392c0.154,0,0.303-0.02,0.447-0.061c0.143-0.04,0.272-0.099,0.386-0.176
					s0.204-0.175,0.27-0.292c0.066-0.118,0.099-0.254,0.099-0.408c0-0.147-0.026-0.279-0.077-0.397
					c-0.051-0.117-0.138-0.227-0.259-0.331c-0.121-0.103-0.28-0.202-0.475-0.298c-0.195-0.095-0.435-0.195-0.722-0.298l-0.485-0.176
					c-0.213-0.073-0.429-0.173-0.645-0.298c-0.217-0.125-0.413-0.276-0.59-0.452c-0.177-0.176-0.322-0.384-0.436-0.623
					c-0.114-0.239-0.171-0.509-0.171-0.81c0-0.309,0.06-0.597,0.182-0.866c0.121-0.268,0.294-0.503,0.518-0.706
					c0.224-0.202,0.492-0.36,0.805-0.474s0.66-0.171,1.042-0.171c0.397,0,0.74,0.053,1.031,0.16
					c0.291,0.107,0.537,0.243,0.739,0.408c0.202,0.165,0.366,0.348,0.491,0.546c0.125,0.199,0.217,0.386,0.276,0.563l-1.312,0.551
					c-0.074-0.221-0.208-0.419-0.402-0.596c-0.195-0.176-0.462-0.265-0.8-0.265c-0.324,0-0.592,0.075-0.805,0.226
					c-0.213,0.151-0.32,0.348-0.32,0.59c0,0.235,0.103,0.436,0.309,0.601c0.206,0.165,0.533,0.325,0.982,0.48l0.497,0.165
					c0.316,0.111,0.605,0.237,0.866,0.381c0.261,0.143,0.485,0.314,0.673,0.513c0.187,0.199,0.331,0.425,0.43,0.678
					c0.1,0.254,0.149,0.546,0.149,0.877c0,0.412-0.083,0.767-0.248,1.064c-0.165,0.298-0.377,0.542-0.634,0.734
					c-0.258,0.191-0.548,0.335-0.872,0.43C236.986,440.797,236.67,440.845,236.361,440.845z"/>
				<path style="fill:#FFFFFF;" d="M239.516,432.771h1.61l1.633,4.754l0.287,1.015h0.088l0.309-1.015l1.699-4.754h1.61l-2.879,7.897
					h-1.566L239.516,432.771z"/>
				<path style="fill:#FFFFFF;" d="M251.097,436.334h3.871c0.022,0.089,0.04,0.195,0.055,0.32c0.015,0.125,0.023,0.25,0.023,0.375
					c0,0.507-0.078,0.985-0.232,1.434c-0.154,0.449-0.397,0.849-0.728,1.202c-0.353,0.375-0.775,0.666-1.268,0.871
					c-0.493,0.206-1.055,0.309-1.688,0.309c-0.574,0-1.114-0.103-1.621-0.309c-0.507-0.206-0.949-0.492-1.324-0.86
					c-0.375-0.367-0.673-0.803-0.894-1.307c-0.22-0.504-0.331-1.053-0.331-1.649c0-0.595,0.11-1.145,0.331-1.649
					c0.221-0.504,0.518-0.939,0.894-1.307c0.375-0.367,0.816-0.654,1.324-0.86c0.507-0.206,1.047-0.309,1.621-0.309
					c0.64,0,1.211,0.11,1.715,0.331c0.504,0.221,0.936,0.526,1.296,0.915l-1.026,1.004c-0.257-0.272-0.544-0.48-0.861-0.623
					c-0.316-0.143-0.694-0.215-1.136-0.215c-0.36,0-0.702,0.065-1.026,0.193c-0.323,0.129-0.607,0.311-0.849,0.546
					c-0.243,0.235-0.436,0.52-0.579,0.855c-0.143,0.335-0.215,0.708-0.215,1.119c0,0.412,0.072,0.785,0.215,1.12
					c0.143,0.335,0.338,0.62,0.585,0.855c0.246,0.235,0.531,0.418,0.854,0.546c0.324,0.129,0.669,0.193,1.037,0.193
					c0.419,0,0.774-0.061,1.064-0.182c0.29-0.121,0.539-0.278,0.745-0.469c0.147-0.132,0.274-0.3,0.38-0.502
					c0.107-0.202,0.189-0.428,0.248-0.678h-2.482V436.334z"/>
			</g>
			<g>
				<path style="fill:#FFFFFF;" d="M297.3,431.299c-0.006-1.224-0.959-2.121-2.189-2.14c-0.924-0.014-0.832,0.12-0.834-0.867
					c-0.003-1.097-0.007-2.194,0.003-3.292c0.003-0.379-0.112-0.691-0.362-0.976c-2.342-2.668-4.678-5.342-7.019-8.011
					c-0.12-0.137-0.275-0.244-0.414-0.366c-6.214,0-12.427,0-18.641,0c-0.794,0.293-1.14,0.868-1.138,1.709
					c0.01,3.748,0.004,7.496,0.004,11.243c0,0.556-0.003,0.589-0.55,0.551c-1.497-0.102-2.516,0.986-2.497,2.492
					c0.044,3.476,0.013,6.953,0.014,10.429c0.001,1.58,0.867,2.443,2.45,2.449c0.582,0.002,0.582,0.002,0.582,0.6
					c0,2.219-0.001,4.438,0.001,6.657c0.001,1.192,0.58,1.771,1.768,1.771c8.013,0.001,16.027,0.001,24.04,0
					c1.168,0,1.755-0.583,1.757-1.745c0.002-2.256,0-4.512,0.001-6.768c0-0.512,0.002-0.511,0.52-0.515
					c0.271-0.002,0.541,0.008,0.809-0.058c0.996-0.246,1.69-1.044,1.694-2.069C297.315,438.696,297.318,434.997,297.3,431.299z
					 M268.85,417.162c5.337,0,10.674,0,16.01,0c0.548,0,0.554,0.007,0.554,0.561c0.001,2.243-0.001,4.486,0.001,6.73
					c0.001,0.811,0.249,1.059,1.06,1.059c1.91,0.001,3.821,0,5.731,0.001c0.458,0,0.479,0.021,0.481,0.483
					c0.003,0.887,0.002,1.775,0,2.662c-0.001,0.477-0.024,0.498-0.504,0.499c-3.895,0.001-7.79,0-11.684,0
					c-3.882,0-7.765,0-11.647,0c-0.55,0-0.552-0.001-0.552-0.561c-0.001-3.624-0.001-7.247,0-10.871
					C268.299,417.166,268.303,417.162,268.85,417.162z M292.135,451.579c-3.883,0.001-7.766,0-11.65,0c-3.871,0-7.742,0-11.613,0
					c-0.572,0-0.574-0.002-0.574-0.579c-0.001-1.997-0.001-3.994,0.001-5.991c0-0.464,0.023-0.486,0.478-0.487
					c7.803-0.001,15.607-0.001,23.41,0c0.478,0,0.499,0.02,0.499,0.503c0.001,1.997,0.001,3.994,0,5.991
					C292.687,451.574,292.682,451.579,292.135,451.579z"/>
			</g>
			<g>
				<path style="fill:#FFFFFF;" d="M272.966,434.183v1.831h3.165v1.412h-3.165v1.831h3.518v1.412h-5.007v-7.897h5.007v1.412H272.966
					z"/>
				<path style="fill:#FFFFFF;" d="M277.852,440.669v-7.897h2.779c0.375,0,0.726,0.061,1.053,0.182
					c0.327,0.121,0.612,0.292,0.855,0.513c0.243,0.221,0.434,0.483,0.574,0.789c0.14,0.305,0.209,0.642,0.209,1.009
					c0,0.375-0.07,0.715-0.209,1.02c-0.14,0.305-0.331,0.568-0.574,0.789c-0.243,0.221-0.528,0.392-0.855,0.513
					c-0.327,0.121-0.678,0.182-1.053,0.182h-1.29v2.901H277.852z M280.653,436.356c0.389,0,0.684-0.111,0.882-0.331
					c0.199-0.22,0.298-0.474,0.298-0.761c0-0.14-0.024-0.276-0.072-0.408c-0.048-0.132-0.121-0.248-0.221-0.347
					c-0.099-0.099-0.222-0.178-0.37-0.237c-0.147-0.059-0.32-0.089-0.518-0.089h-1.312v2.173H280.653z"/>
				<path style="fill:#FFFFFF;" d="M286.797,440.845c-0.338,0-0.662-0.048-0.971-0.143c-0.309-0.095-0.592-0.239-0.849-0.43
					c-0.257-0.191-0.482-0.425-0.673-0.7c-0.191-0.276-0.342-0.597-0.452-0.965l1.401-0.551c0.103,0.397,0.283,0.726,0.541,0.987
					c0.257,0.261,0.595,0.392,1.015,0.392c0.154,0,0.303-0.02,0.447-0.061c0.143-0.04,0.272-0.099,0.386-0.176
					c0.114-0.077,0.204-0.175,0.27-0.292c0.066-0.118,0.1-0.254,0.1-0.408c0-0.147-0.026-0.279-0.077-0.397
					c-0.051-0.117-0.138-0.227-0.259-0.331c-0.121-0.103-0.279-0.202-0.474-0.298c-0.195-0.095-0.436-0.195-0.723-0.298
					l-0.485-0.176c-0.213-0.073-0.428-0.173-0.645-0.298c-0.217-0.125-0.414-0.276-0.59-0.452c-0.176-0.176-0.322-0.384-0.436-0.623
					c-0.114-0.239-0.171-0.509-0.171-0.81c0-0.309,0.061-0.597,0.182-0.866c0.121-0.268,0.294-0.503,0.518-0.706
					c0.224-0.202,0.493-0.36,0.805-0.474c0.312-0.114,0.66-0.171,1.042-0.171c0.397,0,0.741,0.053,1.031,0.16
					c0.29,0.107,0.537,0.243,0.739,0.408c0.202,0.165,0.365,0.348,0.491,0.546c0.125,0.199,0.217,0.386,0.276,0.563l-1.312,0.551
					c-0.074-0.221-0.208-0.419-0.403-0.596c-0.195-0.176-0.462-0.265-0.799-0.265c-0.324,0-0.592,0.075-0.805,0.226
					c-0.213,0.151-0.32,0.348-0.32,0.59c0,0.235,0.103,0.436,0.309,0.601c0.206,0.165,0.533,0.325,0.982,0.48l0.496,0.165
					c0.316,0.111,0.605,0.237,0.866,0.381c0.261,0.143,0.485,0.314,0.673,0.513c0.187,0.199,0.331,0.425,0.43,0.678
					c0.099,0.254,0.149,0.546,0.149,0.877c0,0.412-0.083,0.767-0.248,1.064c-0.165,0.298-0.377,0.542-0.634,0.734
					c-0.258,0.191-0.548,0.335-0.872,0.43C287.422,440.797,287.105,440.845,286.797,440.845z"/>
			</g>
			<g>
				<path style="fill:#FFFFFF;" d="M321.394,439.168l4.004-4.985h-3.827v-1.412h5.559v1.5l-3.96,4.985h4.004v1.412h-5.779V439.168z"
					/>
				<path style="fill:#FFFFFF;" d="M328.409,432.771h1.489v7.897h-1.489V432.771z"/>
				<path style="fill:#FFFFFF;" d="M331.486,440.669v-7.897h2.779c0.375,0,0.726,0.061,1.053,0.182
					c0.327,0.121,0.612,0.292,0.855,0.513s0.434,0.483,0.574,0.789c0.14,0.305,0.209,0.642,0.209,1.009
					c0,0.375-0.07,0.715-0.209,1.02c-0.14,0.305-0.331,0.568-0.574,0.789c-0.243,0.221-0.528,0.392-0.855,0.513
					c-0.327,0.121-0.678,0.182-1.053,0.182h-1.29v2.901H331.486z M334.288,436.356c0.389,0,0.684-0.111,0.882-0.331
					c0.199-0.22,0.298-0.474,0.298-0.761c0-0.14-0.024-0.276-0.072-0.408c-0.048-0.132-0.121-0.248-0.221-0.347
					c-0.099-0.099-0.222-0.178-0.37-0.237c-0.147-0.059-0.32-0.089-0.518-0.089h-1.312v2.173H334.288z"/>
			</g>
		</g>
		<g style="opacity:0.61;">
			<path style="fill:#FFFFFF;" d="M300.133,433.27h9.067v2.242h-9.067V433.27z M300.133,437.136h9.067v2.243h-9.067V437.136z"/>
		</g>
	</g>
	<g style="opacity:0.61;">
		<path style="fill:#FFFFFF;" d="M156.756,478.878h1.607c1.263,0,2.114,0.812,2.114,1.974c0,1.161-0.851,1.973-2.114,1.973h-1.607
			V478.878z M158.34,482.464c1.049,0,1.725-0.665,1.725-1.612c0-0.947-0.677-1.613-1.725-1.613h-1.167v3.225H158.34z"/>
		<path style="fill:#FFFFFF;" d="M165.139,480.851c0-1.15,0.879-2.007,2.075-2.007c1.184,0,2.069,0.851,2.069,2.007
			c0,1.156-0.885,2.007-2.069,2.007C166.019,482.858,165.139,482.002,165.139,480.851z M168.866,480.851
			c0-0.942-0.705-1.635-1.652-1.635c-0.953,0-1.663,0.693-1.663,1.635c0,0.941,0.71,1.635,1.663,1.635
			C168.162,482.486,168.866,481.793,168.866,480.851z"/>
		<path style="fill:#FFFFFF;" d="M179.596,478.878l-1.331,3.947h-0.44l-1.156-3.366l-1.161,3.366h-0.434l-1.331-3.947h0.429
			l1.139,3.394l1.178-3.394h0.389l1.161,3.411l1.156-3.411H179.596z"/>
		<path style="fill:#FFFFFF;" d="M187.731,478.878v3.947h-0.344l-2.537-3.202v3.202h-0.417v-3.947h0.344l2.543,3.203v-3.203H187.731
			z"/>
		<path style="fill:#FFFFFF;" d="M193.093,478.878h0.417v3.586h2.21v0.361h-2.627V478.878z"/>
		<path style="fill:#FFFFFF;" d="M200.061,480.851c0-1.15,0.879-2.007,2.075-2.007c1.184,0,2.069,0.851,2.069,2.007
			c0,1.156-0.885,2.007-2.069,2.007C200.941,482.858,200.061,482.002,200.061,480.851z M203.788,480.851
			c0-0.942-0.705-1.635-1.652-1.635c-0.953,0-1.663,0.693-1.663,1.635c0,0.941,0.71,1.635,1.663,1.635
			C203.083,482.486,203.788,481.793,203.788,480.851z"/>
		<path style="fill:#FFFFFF;" d="M211.636,481.77h-2.199l-0.474,1.054h-0.434l1.804-3.947h0.412l1.804,3.947h-0.44L211.636,481.77z
			 M211.484,481.432l-0.947-2.12l-0.947,2.12H211.484z"/>
		<path style="fill:#FFFFFF;" d="M217.28,478.878h1.607c1.263,0,2.114,0.812,2.114,1.974c0,1.161-0.851,1.973-2.114,1.973h-1.607
			V478.878z M218.864,482.464c1.049,0,1.725-0.665,1.725-1.612c0-0.947-0.677-1.613-1.725-1.613h-1.167v3.225H218.864z"/>
		<path style="fill:#FFFFFF;" d="M234.041,481.77h-2.199l-0.474,1.054h-0.434l1.804-3.947h0.412l1.804,3.947h-0.44L234.041,481.77z
			 M233.889,481.432l-0.947-2.12l-0.947,2.12H233.889z"/>
		<path style="fill:#FFFFFF;" d="M239.685,478.878h0.417v3.586h2.21v0.361h-2.627V478.878z"/>
		<path style="fill:#FFFFFF;" d="M247.082,478.878h0.417v3.586h2.21v0.361h-2.627V478.878z"/>
		<path style="fill:#FFFFFF;" d="M260.449,479.239v1.551h2.041v0.361h-2.041v1.675h-0.417v-3.947h2.706v0.361H260.449z"/>
		<path style="fill:#FFFFFF;" d="M267.678,478.878h0.417v3.947h-0.417V478.878z"/>
		<path style="fill:#FFFFFF;" d="M273.456,478.878h0.417v3.586h2.21v0.361h-2.627V478.878z"/>
		<path style="fill:#FFFFFF;" d="M283.644,482.464v0.361h-2.791v-3.947h2.706v0.361h-2.289v1.404h2.041v0.355h-2.041v1.466H283.644z
			"/>
		<path style="fill:#FFFFFF;" d="M294.672,479.239v1.551h2.041v0.361h-2.041v1.675h-0.417v-3.947h2.706v0.361H294.672z"/>
		<path style="fill:#FFFFFF;" d="M301.5,480.851c0-1.15,0.879-2.007,2.075-2.007c1.184,0,2.069,0.851,2.069,2.007
			c0,1.156-0.885,2.007-2.069,2.007C302.379,482.858,301.5,482.002,301.5,480.851z M305.226,480.851
			c0-0.942-0.705-1.635-1.652-1.635c-0.953,0-1.663,0.693-1.663,1.635c0,0.941,0.71,1.635,1.663,1.635
			C304.522,482.486,305.226,481.793,305.226,480.851z"/>
		<path style="fill:#FFFFFF;" d="M313.351,482.825l-0.902-1.269c-0.102,0.011-0.203,0.017-0.316,0.017h-1.06v1.252h-0.417v-3.947
			h1.477c1.004,0,1.613,0.507,1.613,1.353c0,0.62-0.327,1.054-0.902,1.24l0.964,1.353H313.351z M313.328,480.231
			c0-0.632-0.417-0.992-1.207-0.992h-1.048v1.979h1.048C312.911,481.218,313.328,480.851,313.328,480.231z"/>
		<path style="fill:#FFFFFF;" d="M322.907,478.878v3.947h-0.4v-3.158l-1.551,2.656h-0.197l-1.551-2.639v3.14h-0.4v-3.947h0.344
			l1.714,2.926l1.697-2.926H322.907z"/>
		<path style="fill:#FFFFFF;" d="M330.744,481.77h-2.199l-0.473,1.054h-0.434l1.804-3.947h0.411l1.804,3.947h-0.44L330.744,481.77z
			 M330.592,481.432l-0.947-2.12l-0.947,2.12H330.592z"/>
		<path style="fill:#FFFFFF;" d="M336.957,479.239h-1.387v-0.361h3.192v0.361h-1.387v3.586h-0.417V479.239z"/>
		<path style="fill:#FFFFFF;" d="M343.063,482.346l0.164-0.321c0.282,0.276,0.784,0.479,1.302,0.479c0.739,0,1.06-0.31,1.06-0.699
			c0-1.083-2.43-0.417-2.43-1.877c0-0.581,0.451-1.083,1.455-1.083c0.446,0,0.908,0.13,1.224,0.35l-0.141,0.333
			c-0.338-0.22-0.733-0.327-1.083-0.327c-0.722,0-1.043,0.321-1.043,0.716c0,1.083,2.43,0.429,2.43,1.866
			c0,0.581-0.462,1.077-1.472,1.077C343.937,482.858,343.356,482.65,343.063,482.346z"/>
	</g>
</g>
<g>
</g>
<g>
	<g>
		<path style="fill:#7B0139;" d="M118.591,268.244c-2.063,2.942-3.832,4.636-5.831,6.016c-2.26,1.56-3.088,3.461-2.855,6.231
			c0.302,3.593,0.115,7.226,0.206,10.84c0.018,0.727-0.322,1.927,0.866,1.965c1.307,0.042,1.245-1.194,1.259-2.091
			c0.051-3.508,0.039-7.018,0.05-10.527c0.004-1.422,0.078-2.813,1.217-3.889c3.396-3.208,6.809-6.399,10.161-9.653
			c1.338-1.299,2.346-1.22,3.382,0.324c2.804,4.174,5.642,8.324,8.484,12.472c1.011,1.476,0.774,3.142,0.775,4.76
			c0.013,25.266-0.008,50.532,0.053,75.798c0.004,1.473-0.893,4.133,1.115,4.18c2.454,0.058,1.475-2.7,1.479-4.215
			c0.07-25.734,0.023-51.468,0.091-77.202c0.007-2.598-0.622-4.798-2.176-6.829c-2.842-3.714-5.796-7.358-8.386-11.243
			c-1.639-2.459-3.012-2.794-5.187-0.793c-0.785,0.723-1.549,1.834-2.938,1.627c0.4-3.615,0.4-3.617-3.468-3.619
			c-4.284-0.002-8.568,0-13.925,0c3.499-3.352,6.807-4.964,9.92-6.855c0.762-0.463,2.016-0.702,1.96-1.756
			c-0.055-1.036-1.327-1.168-2.113-1.602c-3.174-1.749-6.36-3.48-9.571-5.16c-1.518-0.794-2.355-1.768-1.857-3.629
			c0.876-3.274,1.681-6.57,2.401-9.882c0.422-1.944,1.426-2.664,3.436-2.596c4.089,0.139,8.189-0.028,12.28,0.088
			c2.15,0.061,3.07-0.862,3.65-2.871c3.195-11.07,3.238-11.058-6.357-17.386c-0.098-0.064-0.196-0.128-0.294-0.192
			c-8.802-5.808-8.76-5.794-5.401-15.656c0.698-2.05,1.781-2.808,3.898-2.382c3.206,0.646,6.42,1.309,9.663,1.698
			c3.013,0.361,4.058,1.71,4.028,4.814c-0.148,15.088-0.067,30.178-0.066,45.268c0,0.936-0.014,1.873,0.034,2.806
			c0.029,0.56-0.021,1.275,0.74,1.396c0.804,0.128,1.407-0.391,1.585-1.085c0.229-0.891,0.282-1.844,0.289-2.772
			c0.029-4.211,0.12-8.425-0.02-12.632c-0.088-2.65,0.67-3.978,3.559-4.439c7.796-1.245,7.772-1.384,7.756,6.591
			c-0.004,1.755-0.058,3.513,0.041,5.262c0.053,0.94-0.338,2.437,1.273,2.374c1.492-0.059,1.669-1.304,1.64-2.599
			c-0.068-3.04,0.033-6.085-0.089-9.122c-0.118-2.932,0.805-4.777,4.078-4.711c0.455,0.009,0.91-0.216,1.373-0.273
			c8.607-1.049,7.055-1.868,7.445,5.973c0.048,0.974-0.46,2.433,1.056,2.542c1.644,0.119,1.954-1.235,2.096-2.645
			c0.769-7.665,0.784-7.692,8.217-8.975c2.374-0.41,5.405-1.864,5.334,2.704c-0.008,0.528,0.416,0.845,0.949,0.777
			c0.787-0.101,1.4-0.678,1.381-1.376c-0.1-3.654,2.439-3.9,5.113-4.297c5.893-0.874,11.752-1.974,17.645-2.847
			c2.889-0.428,4.379-1.606,4.081-4.801c-0.276-2.961,0.481-6.027-2.558-8.253c-1.166-0.854-1.557-2.914-1.001-4.269
			c2.592-6.317-0.934-11.79-2.121-17.582c-0.187-0.915-0.417-1.821-0.643-2.728c-0.422-1.694,0.165-2.728,1.932-3.02
			c0.346-0.057,0.686-0.15,1.029-0.22c7.264-1.475,6.17-2.464,9.256,4.467c0.332,0.746,0.688,1.491,1.125,2.178
			c1.142,1.796,2.733,0.967,4.082,0.468c1.823-0.673,0.647-1.888,0.235-2.868c-0.543-1.293-1.218-2.531-1.75-3.828
			c-0.548-1.335-1.751-2.861,0.481-3.806c1.887-0.799,3.477-0.861,4.623,1.447c4.733,9.531,9.554,19.018,14.465,28.458
			c0.73,1.403,0.959,4.582,3.526,3.064c2.203-1.303-0.321-3.072-0.978-4.413c-4.421-9.031-9.027-17.971-13.528-26.963
			c-0.466-0.93-1.822-2.196-0.306-2.995c1.392-0.735,2.072,0.846,2.361,1.899c0.969,3.533,3.05,3.865,6.354,3.137
			c13.577-2.992,27.203-5.764,40.84-8.471c2.773-0.551,3.422-2.362,3.988-4.622c0.612-2.441,0.865-5.102,4.168-5.815
			c3.56-0.769,4.155-0.384,3.142,3.071c-2.565,8.745-5.232,17.46-7.845,26.19c-2.85,9.52-5.693,19.042-8.518,28.569
			c-0.261,0.879-0.726,1.791-0.325,2.724c0.461,1.071,1.457,1.575,2.523,1.648c1.472,0.1,1.521-1.268,1.788-2.204
			c2.022-7.082,3.977-14.182,5.973-21.272c3.547-12.6,7.107-25.196,10.666-37.792c0.127-0.449,0.265-0.902,0.46-1.324
			c1.078-2.338,3.513-2.888,5.324-2.375c2.162,0.613,0.348,2.595-0.011,3.803c-5.975,20.053-12.046,40.078-18.093,60.109
			c-0.202,0.668-0.462,1.333-0.544,2.018c-0.072,0.606,0.225,1.168,0.862,1.371c0.709,0.226,1.081-0.236,1.301-0.818
			c0.288-0.765,0.542-1.543,0.794-2.321c5.551-17.125,11.148-34.235,16.599-51.392c0.846-2.664,2.08-4.338,4.998-4.463
			c3.113-0.133,3.404-1.839,2.73-4.495c-1.42-5.599-1.351-5.763,4.307-7.125c16.016-3.857,32.067-7.57,48.091-11.395
			c2.606-0.622,5.049-0.542,7.521,0.535c2.034,0.886,4.166,1.545,6.23,2.367c8.248,3.284,11.68,3.423,21.091,0.622
			c-7.434-3.187-14.487-6.21-21.539-9.237c-1.038-0.446-2.068-0.235-3.097,0.005c-16.843,3.936-33.684,7.88-50.528,11.813
			c-11.724,2.737-23.453,5.451-35.176,8.189c-21.049,4.916-42.097,9.836-63.143,14.768c-4.891,1.146-9.787,2.284-14.647,3.552
			c-2.395,0.625-3.283-0.314-3.289-2.565c-0.01-3.86,0.095-7.725-0.065-11.578c-0.107-2.59,0.967-3.778,3.434-4.357
			c4.319-1.014,6.28-5.131,4.563-9.099c-0.255-0.589-0.634-1.016-1.25-1.09c-2.666-0.32-5.331-0.723-8.008-0.851
			c-2.317-0.111-2.06,1.775-2.064,3.264c-0.021,8.071-0.098,16.144,0.042,24.212c0.047,2.69-0.807,4.079-3.53,4.57
			c-3.332,0.6-6.61,1.506-9.903,2.313c-2.041,0.501-3.101-0.043-3.087-2.356c0.053-8.539,0.051-17.078,0.003-25.617
			c-0.011-1.933,0.729-2.987,2.622-3.533c3.143-0.907,6.236-1.993,9.324-3.077c0.863-0.303,1.758-0.732,2.413-1.345
			c0.587-0.549,0.774-1.52,0.441-2.3c-0.475-1.114-1.335-0.49-2.094-0.275c-3.147,0.894-6.311,1.734-9.449,2.658
			c-2.203,0.649-3.281,0.128-3.262-2.397c0.069-9.24,0.058-18.482,0.004-27.722c-0.011-1.951,0.802-3.031,2.613-3.598
			c3.235-1.012,6.45-2.087,9.663-3.169c1.562-0.526,2.99-1.475,2.301-3.29c-0.7-1.843-2.197-0.506-3.294-0.226
			c-2.945,0.751-5.861,1.617-8.785,2.451c-1.629,0.465-2.472-0.073-2.47-1.824c0.013-9.708,0.016-19.417,0.026-29.125
			c0.002-1.721,1.182-2.406,2.58-2.907c2.861-1.026,5.727-2.04,8.569-3.12c0.969-0.368,1.957-0.801,2.775-1.418
			c0.795-0.6,1.008-1.627,0.621-2.557c-0.544-1.306-1.607-0.642-2.409-0.367c-2.875,0.985-5.742,2.005-8.568,3.124
			c-2.516,0.996-3.677,0.495-3.64-2.458c0.1-8.187,0.091-16.376,0.004-24.563c-0.024-2.22,0.888-3.264,2.886-4.149
			c12.764-5.654,12.719-5.646,25.549-0.282c9.059,3.788,18.163,7.474,27.313,11.034c2.566,0.999,3.638,2.408,3.586,5.193
			c-0.141,7.601-0.055,15.206-0.035,22.809c0.003,1.046,0.048,2.109,0.24,3.133c0.164,0.874,0.855,1.448,1.752,1.456
			c1.239,0.011,1.08-1.044,1.087-1.801c0.037-4.211,0.087-8.423-0.001-12.632c-0.046-2.184,0.74-3.435,2.908-4.1
			c10.167-3.117,20.308-6.322,30.44-9.552c1.094-0.349,1.996-0.272,3.025,0.154c4.426,1.832,8.861,3.643,13.326,5.376
			c5.299,2.057,8.416,5.792,8.907,11.497c1.188,13.776,0.634,27.583,0.342,41.366c-0.131,6.203-3.385,10.726-9.914,12.446
			c-3.83,1.009-7.502,2.617-11.243,3.961c-0.991,0.356-2.221,0.641-2.289,1.885c-0.198,3.616-0.28,7.24-0.317,10.863
			c-0.013,1.269,0.959,1.063,1.787,0.876c8.091-1.831,16.178-3.675,24.272-5.493c1.781-0.4,2.014-1.664,2.005-3.185
			c-0.026-4.211-0.002-8.422-0.002-12.633c0.001-23.629,0.067-47.257-0.068-70.885c-0.021-3.707,1.112-5.285,4.737-6.777
			c7.517-3.094,14.179-2.395,20.89,1.765c2.472,1.533,5.256,2.556,7.846,3.91c2.178,1.139,3.217,0.821,3.134-1.878
			c-0.104-3.389,0.098-6.789-0.05-10.174c-0.107-2.447,0.933-3.695,3.233-4.172c1.142-0.237,2.358-0.43,3.36-0.975
			c7.655-4.164,14.353-2.795,20.507,3.126c1.749,1.683,3.809,3.24,6.009,4.218c4.678,2.078,5.418,5.392,5.357,10.264
			c-0.317,25.144-0.123,50.295-0.166,75.443c-0.004,2.38,0.637,3.879,3.073,4.767c3.284,1.197,6.407,2.833,9.598,4.284
			c0.532,0.242,1.189,0.374,1.565,0.769c3.88,4.081,1.359,9.065,1.708,13.616c0.226,2.944-2.877,2.54-4.767,2.934
			c-3.083,0.644-6.229,0.982-9.349,1.448c-1.496,0.223-2.685,0.669-2.691,2.562c-0.006,1.768,1.004,2.466,2.477,2.898
			c6.389,1.874,12.751,3.843,19.17,5.603c2.1,0.576,3.092,1.691,3.56,3.757c0.954,4.207,1.355,8.556,3.025,12.585
			c0.56,1.351-0.358,1.919-1.139,2.602c-7.39,6.454-14.781,12.908-22.175,19.357c-3.043,2.654-2.876,4.695,0.755,6.252
			c5.263,2.257,10.586,4.384,15.942,6.412c2.183,0.827,3.14,2.086,3.035,4.445c-0.141,3.152-0.156,6.322,0.012,9.471
			c0.137,2.559-1.016,3.718-3.314,4.576c-5.8,2.165-11.487,4.635-17.261,6.874c-1.942,0.753-2.797,1.942-2.547,3.994
			c0.226,1.855,0.54,3.716,0.556,5.577c0.018,2.155,1.048,3.039,3.039,3.574c4.852,1.304,9.624,2.906,14.472,4.23
			c2.362,0.645,3.478,1.809,3.561,4.391c0.123,3.845,0.444,7.715,1.105,11.5c0.51,2.92-0.571,4.015-3.228,4.6
			c-5.02,1.106-9.98,2.483-14.986,3.658c-2.339,0.549-3.012,1.579-2.788,4.184c0.412,4.775,2.116,8.305,6.165,11.102
			c4.12,2.846,7.734,6.415,11.663,9.551c1.517,1.211,2.289,2.533,2.078,4.491c-0.425,3.946-0.76,7.902-1.15,11.852
			c-0.236,2.391-1.248,3.418-3.923,2.936c-5.17-0.93-10.397-1.568-15.616-2.193c-1.259-0.151-3.029-1.015-3.733,0.747
			c-0.613,1.532-0.427,3.293,0.818,4.607c1.284,1.355,2.676,2.611,4.061,3.866c3.378,3.059,6.768,6.105,10.178,9.129
			c1.052,0.933,1.515,1.954,1.215,3.405c-0.85,4.109-1.635,8.231-2.38,12.36c-0.374,2.073-1.663,2.596-3.541,2.435
			c-6.17-0.529-12.361-0.879-18.506-1.612c-2.691-0.321-3.077,0.617-3.137,2.977c-0.081,3.178,0.689,5.93,2.329,8.622
			c3.465,5.688,6.721,11.503,10.162,17.206c1.307,2.166,1.754,4.201,0.556,6.58c-0.996,1.977-1.666,4.115-2.557,6.148
			c-3.713,8.475-1.207,7.033-11.064,7.187c-2.69,0.042-5.382,0.056-8.071-0.002c-2.008-0.043-2.444,0.692-1.728,2.563
			c1.672,4.367,3.125,8.82,4.84,13.169c0.659,1.672,0.769,2.917-0.386,4.485c-3.328,4.519-6.23,9.241-7.86,14.754
			c-2.614,8.843-10.102,12.218-18.019,14.421c-3.779,1.051-6.893,2.59-9.596,5.336c-1.799,1.827-3.918,3.337-5.755,5.13
			c-1.45,1.415-3.031,2.028-5.046,1.881c-4.196-0.307-8.399-0.516-12.6-0.745c-1.53-0.083-3.299-0.273-4.147,1.25
			c-4.032,7.243-11.157,6.397-17.787,7.145c-5.947,0.67-11.676-0.442-17.33-1.803c-4.306-1.036-8.294-0.775-12.295,0.873
			c-7.245,2.984-14.731,4.175-22.588,3.644c-2.927-0.198-4.641-1.046-5.13-3.978c-0.095-0.571-0.36-1.112-0.518-1.674
			c-2.502-8.887-1.307-7.333-9.868-5.869c-5.786,0.99-11.426,1.974-17.304,0.489c-2.437-0.616-3.659-1.54-3.889-4.066
			c-0.402-4.419-1.084-8.813-1.504-13.231c-0.219-2.3-1.237-3.384-3.574-3.289c-4.438,0.18-8.884,0.216-13.318,0.464
			c-7.029,0.393-13.231-6.077-12.189-12.895c0.565-3.694,0.651-7.43,1.322-11.131c0.707-3.901-0.035-4.286-3.977-4.476
			c-3.734-0.18-6.769,0.858-10.098,2.802c-11.897,6.946-24.757,8.11-37.874,4.047c-5.285-1.637-9.142-5.38-9.96-11.196
			c-0.826-5.871,2.505-10.144,7.05-12.751c4.235-2.429,4.793-5.507,4.737-9.748c-0.185-14.034-0.083-28.073-0.059-42.109
			c0.004-2.191,0.171-4.301-2.946-4.491c-1.675-0.102-1.852-1.722-2.035-2.909c-0.727-4.731-1.287-9.488-1.929-14.233
			c-0.312-2.308,1.113-3.533,2.905-4.265c2.848-1.163,3.572-3.175,3.452-6.096c-0.208-5.021-0.139-10.059-0.007-15.086
			c0.063-2.415-0.758-3.962-2.98-4.978c-1.799-0.822-3.492-1.902-5.162-2.977c-2.016-1.297-5.067-1.716-5.605-4.389
			c-0.759-3.77-0.477-7.682-0.104-11.525c0.1-1.035,1.011-1.54,1.951-1.797c1.692-0.462,3.395-0.883,5.1-1.295
			C107.209,270.973,112.406,269.73,118.591,268.244z M240.104,399.855c18.596-0.032,29.113-4.213,36.845-14.471
			c1.509-2.002,1.696-3.821,0.732-6.143c-4.836-11.648-9.539-23.352-14.292-35.035c-0.704-1.731-1.407-3.463-2.137-5.184
			c-0.407-0.96-0.999-1.706-2.114-0.874c-4.379,3.27-9.22,6.168-12.342,10.701c-3.623,5.261-8.076,9.382-13.681,12.239
			c-6.395,3.26-13.134,5.456-20.398,5.777c-1.854,0.082-3.919,0.143-4.123,2.775c-0.378,4.886,0.162,9.595,3.05,13.738
			C220.029,395.402,232.025,399.846,240.104,399.855z M301.127,361.24c1.631-2.905,2.812-5.006,3.99-7.108
			c0.382-0.681,0.576-1.774,1.606-1.489c0.991,0.275,0.635,1.364,0.73,2.135c0.043,0.346,0.007,0.701,0.007,1.052
			c0.005,20.351-0.034,40.702,0.064,61.053c0.014,2.918-0.946,4.728-3.494,6.218c-5.065,2.962-8.409,7.349-9.507,13.244
			c-0.998,5.358,1.742,10.565,6.96,11.794c10.709,2.523,21.551,3.172,32.18-0.407c5.647-1.901,10.19-5.321,11.616-11.6
			c0.288-1.266,0.998-2.805-0.954-3.586c-1.908-0.763-2.528,0.596-3.122,1.883c-1.705,3.698-4.697,5.895-8.181,7.834
			c-5.575,3.103-11.631,3.418-17.684,3.475c-3.962,0.037-7.908-0.822-11.26-3.324c-3.707-2.768-4.494-5.874-2.619-10.111
			c1.564-3.535,4.206-6.182,7.07-8.589c1.584-1.332,2.239-2.741,2.234-4.802c-0.053-23.158-0.041-46.316-0.013-69.474
			c0.002-1.714-0.222-3.283-1.557-4.466c-3.077-2.726-3.555-6.178-3.521-10.118c0.165-19.523,0.045-39.049,0.175-58.572
			c0.02-3.028-1.069-3.994-3.895-3.612c-3.24,0.439-6.49,0.811-9.741,1.16c-2.135,0.229-3.023,1.162-3.506,3.472
			c-1.526,7.307-3.069,14.682-7.562,20.945c-1.09,1.52-0.787,3.01-0.2,4.647c1.934,5.39,3.751,10.822,5.621,16.235
			C291.295,332.815,296.031,346.502,301.127,361.24z M256.486,408.335c-0.878,0-1.785-0.143-2.63,0.024
			c-5.062,0.999-10.189,1.515-15.322,1.653c-9.186,0.247-18.279-0.378-26.484-5.182c-6.403-3.749-11.893-8.645-16.971-14.012
			c-5.437-5.747-5.42-5.763-0.731-12.208c0.275-0.378,0.534-0.769,0.816-1.142c0.655-0.865,1.367-1.701,0.111-2.667
			c-1.125-0.865-1.966-0.332-2.73,0.508c-1.337,1.469-2.688,2.93-3.946,4.466c-0.936,1.143-1.747,1.363-2.857,0.207
			c-1.941-2.022-3.96-3.97-5.952-5.942c-1.43-1.415-1.584-2.675,0.156-4.06c1.457-1.16,2.732-2.552,4.059-3.871
			c0.571-0.568,1.3-1.207,0.579-2.086c-0.707-0.861-1.522-0.287-2.212,0.094c-1.33,0.735-2.75,1.392-3.889,2.366
			c-2.426,2.072-3.998,1.139-5.791-0.973c-3.003-3.537-5.273-7.482-6.757-11.803c-8.276-24.099-9.933-49.117-10.129-74.331
			c-0.019-2.468,1.284-3.184,3.483-3.342c8.504-0.613,17.001-1.31,25.5-1.991c1.217-0.098,2.962,0.278,2.992-1.564
			c0.036-2.204-1.92-1.614-3.18-1.623c-7.954-0.054-15.908-0.022-23.863-0.032c-4.86-0.006-4.82-0.018-4.962-4.844
			c-0.042-1.435,0.581-3.173-1.077-4.151c-3.529-2.082-7.96,0.318-7.95,4.293c0.047,18.581-0.659,37.188,1.885,55.685
			c1.578,11.476,3.545,22.863,7.685,33.757c5.33,14.026,14.001,25.908,24.256,36.596c11.597,12.088,25.185,20.837,42.377,22.689
			C234.746,416.118,245.785,413.393,256.486,408.335z M204.322,284.106c1.842-0.665,3.558-0.731,5.165-0.049
			c13.447,5.71,26.648,11.849,37.517,21.967c0.662,0.616,1.309,1.791,2.241,1.324c1.112-0.558,0.61-1.915,0.393-2.858
			c-1.33-5.782-4.777-10.131-9.716-13.198c-6.85-4.253-13.799-8.352-20.799-12.352c-2.913-1.664-4.778-3.664-4.25-7.228
			c0.272-1.838-0.589-2.574-2.391-2.464c-1.165,0.071-2.345,0.095-3.505-0.004c-2.497-0.213-3.355,1.04-3.264,3.344
			c0.064,1.636,0.055,3.283-0.566,4.844c-0.472,1.187-0.936,2.923-2.388,2.579c-1.815-0.43-0.591-2.151-0.552-3.291
			c0.055-1.615,1.61-3.628-0.769-4.585c-2.431-0.978-4.962-1.311-7.036,1.154c-2.765,3.285-3.076,5.927-0.666,9.707
			c1.114,1.748,1.263,3.198-0.458,4.591c-1.643,1.331-3.342,1.72-5.076,0.263c-1.784-1.499-3.195-3.596-2.842-5.775
			c0.69-4.266-1.535-3.645-4.105-3.02c-0.793,0.193-1.608,0.376-2.418,0.404c-1.707,0.058-3.678,0.053-3.231,2.458
			c0.675,3.636-2.205,7.897,1.873,10.925c0.087,0.064,0.222,0.07,0.337,0.087c3.539,0.501,2.662,2.032,1.151,4.118
			c-4.954,6.843-9.445,13.953-11.351,22.352c-0.265,1.168-0.987,2.404,0.153,3.624c1.386-0.716,2.66-1.817,4.065-2.023
			c6.278-0.92,12.619-2.015,18.855-2.375c3.282-0.189,4.983-0.886,6.597-3.067c1.665-2.248,3.149-4.633,4.662-6.991
			c1.511-2.355,1.479-4.018-1.576-5.354c-5.617-2.454-9.827-6.791-14.211-11.278c4.865-1.32,9.643-0.33,12.536,2.294
			c0.271,0.246,0.893,0.294,1.286,0.188c3.835-1.038,5.903,1.027,7.518,4.095c1.042,1.979,2.546,3.205,5.043,3.052
			c4.193-0.256,8.171,0.218,10.52,4.459c0.292,0.527,0.955,0.919,1.499,0.643c2.26-1.146,3.378-0.066,4.271,1.891
			c0.35,0.767,1.262,1.229,2.077,1.067c2.837-0.567,5.848-1.795,6.665,2.649c3.197,0.102,6.214,0.582,8.019,3.713
			c0.068,0.118,0.446,0.048,0.677,0.081c1.813,0.265,3.228,1.236,4.547,2.452c4.071,3.75,6.1,8.178,4.893,13.811
			c-0.172,0.802-0.776,1.965,0.45,2.474c1.01,0.419,1.783-0.345,2.416-1.036c2.154-2.347,3.302-4.922,2.54-8.279
			c-1.288-5.678-4.595-9.919-9.041-13.373c-11.944-9.279-24.578-17.457-38.386-23.728
			C210.563,286.97,207.444,285.534,204.322,284.106z M318.588,224.41c-2.193-17.141-6.592-36.55-13.577-55.35
			c-0.725-1.951-1.295-4.01-4.241-3.72c-2.873,0.282-4.19,1.681-5.039,4.394c-4.286,13.708-8.645,27.397-13.251,41
			c-1.26,3.721-2.637,6.922,1.576,9.624c1.019,0.653,1.724,1.908,2.372,3.005c1.405,2.38,3.447,3.584,6.118,4.208
			c6.593,1.542,13.134,3.304,19.704,4.944C318.779,234.146,318.732,235.153,318.588,224.41z M357.268,74.937
			c0,14.037,0.076,28.075-0.058,42.111c-0.031,3.204,1.12,3.974,3.928,3.026c3.194-1.078,6.204-1.423,9.396,0.468
			c3.313,1.963,3.613,1.645,3.614-2.248c0.006-24.915-0.036-49.83,0.035-74.745c0.007-2.526-0.833-4.149-2.949-5.456
			c-3.48-2.149-6.812-4.535-10.258-6.74c-0.933-0.597-1.818-2.021-2.988-1.383c-1.301,0.709-0.693,2.338-0.696,3.558
			C357.253,47.331,357.267,61.134,357.268,74.937z M216.485,112.13c0,11.561,0.081,23.124-0.053,34.684
			c-0.037,3.153,1.01,3.874,3.935,3.079c3.373-0.918,6.819-1.598,10.263-2.213c2.068-0.369,3.058-1.318,3.054-3.482
			c-0.029-20.32-0.028-40.64,0.007-60.96c0.003-1.932-0.792-2.947-2.594-3.598c-3.73-1.349-7.433-2.794-11.066-4.384
			c-2.828-1.237-3.626-0.465-3.594,2.541C216.561,89.24,216.487,100.685,216.485,112.13z M110.76,259.968
			c0.074,0.131,0.148,0.261,0.222,0.392c74.879-6.296,149.758-12.591,224.637-18.887c-2.238-1.222-4.484-1.805-6.736-2.362
			c-29.263-7.237-58.534-14.439-87.784-21.727c-7.226-1.8-14.295-4.309-21.943-2.069c-3.112,0.911-6.48,0.923-9.632,1.732
			c-6.428,1.651-13.289,1.312-19.421,4.283c-22.822,11.056-45.652,22.097-68.469,33.164
			C117.982,256.265,114.383,258.141,110.76,259.968z M271.595,171.192c-3.047,0.624-6.132,1.265-9.22,1.886
			c-10.641,2.14-21.285,4.262-31.922,6.419c-1.531,0.311-3.13,0.554-1.873,2.899c3.64,6.792,7.168,13.645,10.726,20.48
			c0.656,1.26,1.471,1.996,3.056,1.644c7.052-1.567,13.686-0.034,20.028,3.018c1.925,0.926,2.505,0.205,2.877-1.497
			c0.549-2.509,1.15-5.007,1.753-7.503c2.002-8.28,4.028-16.554,6.009-24.839C273.309,172.529,274.018,170.957,271.595,171.192z
			 M292.196,372.659c-0.264-0.825-0.545-1.839-0.909-2.823c-3.075-8.331-6.181-16.651-9.247-24.985
			c-7.06-19.189-14.089-38.389-21.169-57.57c-0.918-2.487-1.337-4.883-0.457-7.502c1.077-3.206,2.007-6.47,2.82-9.753
			c0.59-2.385,1.875-3.43,4.363-3.68c11.614-1.165,23.212-2.484,34.813-3.768c1.629-0.18,4.089-0.454,3.867-2.165
			c-0.269-2.08-2.707-0.881-4.079-0.76c-11.747,1.035-23.484,2.196-35.216,3.404c-2.1,0.216-3.094-0.447-3.164-2.57
			c-0.094-2.817-0.747-5.544-1.402-8.275c-0.979-4.081-3.858-1.797-5.962-1.758c-2.208,0.041-2.743,1.3-2.486,3.559
			c1.28,11.251-0.852,21.923-6.508,31.72c-1.66,2.875-1.28,4.4,1.504,5.733c0.947,0.453,1.854,0.992,2.77,1.508
			c1.233,0.695,2.165,0.495,2.954-0.755c0.458-0.726,0.536-2.154,1.721-1.886c1.117,0.253,1.157,1.652,1.498,2.59
			c7.51,20.645,14.976,41.306,22.464,61.958c2.27,6.26,4.577,12.507,6.873,18.757c0.524,1.428,1.375,2.605,3.074,2.213
			C291.772,375.517,292.216,374.269,292.196,372.659z M190.273,359.269c3.575,1.951,6.583,3.516,9.946,4.191
			c20.141,4.042,41.42-5.396,50.722-26.533c0.788-1.791,1.081-3.807,1.542-5.733c0.528-2.206-0.383-2.911-2.404-2.027
			c-4.014,1.756-9.349,1.367-10.802,7.263c-1.284-1.523-0.431-3.708-2.685-3.914c-2.193-0.201-3.803,0.52-5.109,2.33
			c-4.445,6.161-9.001,12.243-13.439,18.409c-0.845,1.174-2.825,2.458-1.99,3.726c0.863,1.312,3.06,0.591,4.613,0.271
			c5.745-1.182,10.627-4.11,15.163-7.722c1.446-1.152,2.883-2.58,5.03-2.03c0.104,1.106-0.464,1.587-0.935,2.079
			c-7.194,7.505-15.968,11.646-26.362,12.238c-1.22,0.069-2.865,0.581-3.579-0.673c-0.761-1.337,0.722-2.307,1.45-3.274
			c2.836-3.772,5.753-7.484,8.883-11.533c-2.687-0.325-4.115,0.554-5.401,2.112c-2.826,3.425-5.768,6.755-8.692,10.098
			c-0.525,0.601-1.226,1.365-2.062,0.651c-0.874-0.745-0.124-1.504,0.384-2.104c0.602-0.71,1.377-1.277,1.96-2
			c1.159-1.435,2.926-2.502,3.207-4.493c0.238-1.683,0.794-3.759-1.352-4.579c-1.946-0.744-3.097,0.87-3.795,2.328
			c-1.22,2.552-3.211,4.228-5.448,5.786C196.44,355.999,193.696,357.739,190.273,359.269z M259.166,115.048
			c0.021,0.305,0.042,0.611,0.063,0.916c4.945,1.343,9.885,2.703,14.841,4.007c0.532,0.14,1.19,0.079,1.722-0.096
			c4.546-1.501,9.117-2.939,13.596-4.622c3.061-1.15,5.156-3.418,5.171-6.85c0.063-13.918,0.074-27.837-0.045-41.754
			c-0.031-3.662-1.761-6.361-5.464-7.76c-3.724-1.406-3.874-1.453-3.878,2.526c-0.012,12.75-0.05,25.5,0.014,38.25
			c0.02,4.04-1.769,6.887-5.06,9.006c-2.11,1.359-4.48,1.968-6.854,2.601C268.569,112.525,263.868,113.788,259.166,115.048z
			 M339.063,312.788c0,10.639,0.126,21.281-0.057,31.917c-0.083,4.798,2.097,8.791,3.674,13.028
			c0.464,1.246,1.562,1.669,2.793,1.785c3.836,0.361,7.669,0.763,11.511,1.034c0.969,0.068,2.166,0.355,2.849-0.8
			c1.21-2.046-0.205-7.774-2.284-9.063c-3.973-2.464-7.898-5.022-11.993-7.266c-2.496-1.368-3.277-3.142-3.263-5.914
			c0.098-19.992,0.037-39.984,0.071-59.977c0.004-2.492-0.224-4.904-1.273-7.182c-3.757-8.158-9.272-15.097-15.133-21.796
			c-1.242-1.419-2.384-1.524-3.777-0.043c-2.08,2.212-4.415,4.186-6.483,6.408c-1.397,1.501-4.598,2.27-3.62,4.853
			c1.102,2.909,4.267,2.234,6.807,2.256c0.584,0.005,1.173,0.019,1.752-0.039c0.799-0.08,1.78-0.056,1.758-1.218
			c-0.016-0.851-0.785-1.029-1.47-1.24c-4.393-1.354-4.393-1.361-1.127-4.578c0.666-0.656,1.378-1.268,2.021-1.945
			c1.407-1.48,2.571-1.185,3.741,0.339c3.064,3.989,5.884,8.123,8.475,12.45c3.586,5.988,5.425,12.195,5.122,19.286
			C338.765,294.303,339.063,303.552,339.063,312.788z M350.094,191.564c9.222,1.851,17.984,3.612,26.747,5.367
			c0.846,0.169,1.599-0.002,2.272-0.6c6.626-5.893,13.271-11.764,19.889-17.666c1.76-1.569,1.251-2.364-0.916-2.886
			c-5.9-1.421-11.776-2.949-17.64-4.514c-1.998-0.533-3.595-0.062-5.209,1.161c-5.116,3.876-10.324,7.63-15.455,11.486
			C356.65,186.266,353.202,188.237,350.094,191.564z M308.31,304.518c0,9.696-0.017,19.392,0.018,29.088
			c0.005,1.43-0.47,3.337,1.748,3.597c2.031,0.238,1.953-1.669,2.365-2.889c5.947-17.595,7.304-35.832,7.485-54.223
			c0.072-7.294,0.012-7.294-7.034-7.493c-0.467-0.013-0.951,0.033-1.397-0.074c-2.513-0.602-3.26,0.41-3.232,2.905
			C308.374,285.125,308.309,294.822,308.31,304.518z M374.125,151.072c0.113-1.738-0.568-2.866-2.255-3.509
			c-4.144-1.578-8.248-3.26-12.364-4.91c-1.256-0.503-2.473-0.567-3.706,0.105c-5.02,2.735-10.048,5.454-15.078,8.172
			c-1.24,0.67-2.049,1.523-1.592,3.081c1.642,5.597,3.245,11.205,4.911,16.794c0.554,1.86,1.657,1.934,3.177,0.898
			c8.389-5.717,16.8-11.404,25.225-17.068C373.767,153.745,374.25,152.567,374.125,151.072z M342.346,371.679
			c0.379-0.107,0.759-0.214,1.138-0.321c2.878,4.351,5.768,8.694,8.628,13.058c0.859,1.31,1.732,2.481,3.533,2.473
			c5.696-0.027,11.392-0.01,17.684-0.01c-4.173-7.528-8.161-14.754-12.19-21.957c-0.715-1.278-2.024-1.435-3.365-1.454
			c-3.742-0.054-7.483-0.156-11.225-0.216c-4.907-0.079-7.4,2.288-7.429,7.117c-0.035,5.848-0.085,11.697,0.018,17.543
			c0.043,2.442-0.994,3.66-3.309,4.117c-2.577,0.509-5.127,1.149-7.689,1.732c1.66,0.552,3.151,0.361,4.648,0.274
			c1.634-0.095,3.273-0.093,4.91-0.134c4.629-0.117,4.639-0.117,4.648-4.789C342.355,383.3,342.346,377.489,342.346,371.679z
			 M115.675,342.983c-2.247-0.321-2.519,1.218-2.518,3.043c0.007,14.939,0.027,29.879-0.021,44.818
			c-0.007,2.22,0.817,3.112,3.08,3.146c5.023,0.076,10.013,0.631,14.886,1.916c2.058,0.543,3.111,0.125,3.005-2.247
			c-0.114-2.563-0.105-5.137-0.01-7.701c0.088-2.369-1.142-3.757-3.286-3.58c-8.11,0.667-11.621-3.991-13.35-10.975
			c-0.25-1.011-0.632-2.027-1.152-2.925c-1.378-2.377-0.817-4.292,0.844-6.352c3.732-4.629,7.28-9.407,10.881-14.141
			c1.49-1.959,1.055-3.269-1.444-3.617C123.011,343.869,119.421,343.454,115.675,342.983z M272.967,466.171
			c3.104-0.676,6.27-0.693,9.421-0.691c4.396,0.002,6.298-3.579,8.962-6.052c0.687-0.638,0.271-1.562-0.113-2.296
			c-2.219-4.245-4.462-8.478-6.69-12.719c-0.703-1.339-1.733-1.727-3.206-1.346c-4.071,1.052-8.154,2.062-12.247,3.027
			c-1.86,0.439-2.525,1.556-2.138,3.342c1.063,4.909,2.167,9.81,3.233,14.718C270.522,465.679,271.416,466.338,272.967,466.171z
			 M270.902,300.108c0.421,1.381,0.839,2.955,1.378,4.486c7.14,20.254,14.287,40.505,21.475,60.742
			c0.471,1.325,0.736,3.347,2.907,2.673c1.834-0.57,1.734-2.291,1.483-3.841c-0.129-0.8-0.395-1.587-0.675-2.352
			c-7.12-19.395-14.225-38.796-21.409-58.168c-0.901-2.43-1.068-4.652-0.115-7.112c2.025-5.223,3.875-10.514,5.758-15.791
			c0.483-1.354,1.696-3.129-0.365-3.92c-1.97-0.756-2.489,1.295-3.003,2.63c-2.308,5.991-4.525,12.017-6.75,18.04
			C271.308,298.254,271.171,299.066,270.902,300.108z M193.91,81.968c0,2.917-0.056,5.836,0.01,8.751
			c0.217,9.502-1.781,7.803,8.142,10.31c2.588,0.654,3.584,0.207,3.511-2.691c-0.168-6.764,0.028-13.535-0.073-20.302
			c-0.148-9.894,1.796-7.788-8.54-11.814c-0.109-0.042-0.219-0.081-0.326-0.128c-1.932-0.865-2.782-0.333-2.744,1.872
			C193.971,72.632,193.915,77.301,193.91,81.968z M193.919,120.486c0,4.675,0.061,9.351-0.027,14.024
			c-0.041,2.168,0.687,3.267,2.99,3.278c1.387,0.007,2.767,0.425,4.159,0.566c4.059,0.409,4.479,0.043,4.494-3.988
			c0.024-6.311,0.091-12.624-0.012-18.933c-0.161-9.803,1.797-7.761-8.706-10.801c-2.148-0.622-2.993-0.173-2.934,2.181
			C193.997,111.368,193.915,115.928,193.919,120.486z M319.194,86.846c-0.307,0.05-0.614,0.1-0.921,0.15
			c0,13.272,0.005,26.545-0.005,39.817c-0.001,1.773,0.879,2.225,2.479,1.853c3.749-0.87,7.504-1.716,11.262-2.549
			c1.644-0.365,2.074-1.259,1.437-2.811c-1.019-2.482-1.976-4.989-2.951-7.489C326.725,106.161,322.96,96.503,319.194,86.846z
			 M228.154,271.057c-0.048-4.293-3.241-8.566-7.588-9.977c-11.804-3.831-23.804-5.929-36.241-3.887
			c-0.869,0.143-2.133-0.314-2.438,0.83c-0.282,1.059,0.865,1.543,1.602,2.058c5.989,4.192,12.631,5.78,19.893,5.055
			c2.878-0.287,5.742-1.095,8.683-0.251c7.976,2.289,7.818,0.963,7.656,8.878c-0.027,1.336,0.15,2.548,1.889,2.847
			C225.01,277.194,228.193,274.541,228.154,271.057z M178.331,346.481c-5.797-1.457-9.49-5.716-13.653-10.52
			c0.494,7.341,4.177,11.732,8.773,15.553c0.597,0.496,1.52,1.072,2.173,0.953c4.601-0.833,9.186,1.319,13.801-0.024
			c-0.517-1.648-3.18-0.93-3.373-2.958c3.4-1.074,3.415-1.074,3.441-4.539c0.017-2.22,0.057-4.445-0.054-6.661
			c-0.081-1.609-6.818-5.372-7.611-4.238c-1.816,2.598-3.291,0.772-5.076,0.291c-2.134-0.574-3.146-2.322-4.603-3.61
			c-0.85-0.751-1.809-1.167-2.891-0.799c-1.388,0.471-0.813,1.76-0.935,2.727c-0.192,1.509,0.799,2.62,1.362,3.891
			C171.547,340.753,175.525,343.075,178.331,346.481z M353.87,227.412c7.655,2.174,14.342,4.091,21.047,5.949
			c0.638,0.177,1.428,0.131,2.067-0.068c6.834-2.118,13.533-4.598,20.654-7.643c-6.343-2.163-12.074-4.154-17.836-6.054
			c-1.303-0.429-2.65-1.066-4.097-0.586C368.64,221.358,361.697,224.018,353.87,227.412z M193.91,47.139c0,1.632,0,3.264,0,4.896
			c0,8.875,0.019,8.814,8.433,11.417c2.369,0.733,3.236,0.151,3.208-2.289c-0.059-5.129,0.045-10.26-0.023-15.388
			c-0.122-9.167,1.41-7.433-7.999-11.22c-0.216-0.087-0.443-0.147-0.657-0.24c-2.023-0.882-3.046-0.442-2.981,1.984
			C193.989,39.909,193.917,43.525,193.91,47.139z M232.982,449.63c1.013,5.262,2.008,10.528,3.048,15.785
			c0.332,1.68,1.303,2.326,3.06,1.816c3.023-0.878,6.067-1.691,9.124-2.443c2.081-0.512,2.494-1.825,2.082-3.694
			c-0.679-3.074-1.383-6.144-1.978-9.235c-0.356-1.85-1.262-2.873-3.218-3.044c-3.365-0.295-6.718-0.721-10.077-1.086
			C233.626,447.576,232.652,447.877,232.982,449.63z M338.182,410.213c0-2.794-0.029-5.588,0.01-8.381
			c0.027-1.907-0.845-2.735-2.749-2.724c-3.841,0.023-7.685,0.037-11.523-0.095c-2.602-0.09-2.262,1.001-1.417,2.7
			c3.003,6.044,5.916,12.132,8.893,18.19c1.604,3.264,3.796,3.464,6.11,0.634c0.649-0.794,0.67-1.713,0.677-2.64
			C338.201,415.335,338.189,412.774,338.182,410.213z M353.581,231.031c0.593,4.232,1.248,8.114,1.64,12.023
			c0.209,2.086,1.174,2.751,3.133,2.868c4.426,0.265,8.859,0.56,13.253,1.125c2.956,0.38,4.201-0.558,3.878-3.54
			c-0.163-1.507-0.202-3.028-0.356-4.536c-0.157-1.545-0.919-2.49-2.54-2.904C366.395,234.489,360.228,232.803,353.581,231.031z
			 M307.324,436.978c6.73,4.122,13.843,4.998,21.172,2.798c3.118-0.936,6.047-2.485,7.897-5.446
			c1.353-2.166,1.008-3.894-1.501-4.623c-8.372-2.433-16.622-1.829-24.778,1.587c4.011,0.84,8.022,1.68,12.033,2.52
			c-0.003,0.334-0.007,0.667-0.01,1.001C317.2,435.536,312.262,436.257,307.324,436.978z M256.962,131.337
			c0,2.572,0.037,5.145-0.012,7.716c-0.036,1.916,0.585,2.86,2.704,2.402c2.968-0.641,5.968-1.13,8.949-1.71
			c1.444-0.281,2.094-1.188,2.319-2.664c1.742-11.411,0.753-12.927-10.338-15.549c-0.341-0.081-0.684-0.156-1.02-0.255
			c-1.78-0.523-2.66,0.039-2.617,1.993C257.005,125.958,256.961,128.648,256.962,131.337z M321.518,41.884
			c1.2,4.229,15.797,30.028,18.109,32.177c0-7.126,0.008-14.126-0.007-21.127c-0.003-1.289,0.028-2.695-1.379-3.352
			C332.796,47.04,327.324,44.552,321.518,41.884z M233.678,62.433c0-2.449,0.004-4.898-0.001-7.347
			c-0.011-6.011-0.044-5.928-5.723-8.138c-2.569-1-3.384-0.246-3.354,2.339c0.064,5.597,0.009,11.195,0.008,16.793
			c-0.001,6.683,0.297,6.993,6.744,8.878c1.769,0.517,2.355,0.09,2.333-1.679C233.641,69.664,233.672,66.049,233.678,62.433z
			 M373.138,288.024c4.081,0.139,4.125,0.135,3.817-3.185c-0.151-1.622-0.529-3.223-0.746-4.841
			c-0.18-1.334-0.894-2.084-2.196-2.368c-5.475-1.193-10.944-2.414-16.422-3.598c-0.915-0.198-2.206-0.39-2.162,0.946
			c0.118,3.599,0.298,7.227,1.571,10.66c0.268,0.723,1.08,0.813,1.789,0.887C363.778,287.047,368.767,287.568,373.138,288.024z
			 M121.54,420.145c8.145,0.396,15.211-2.162,21.158-7.711c0.804-0.75,2.06-1.575,0.701-2.852c-0.975-0.916-2.086-1.574-3.419-0.513
			c-1.097,0.873-2.17,1.79-3.334,2.565c-6.96,4.633-14.415,6.647-22.597,3.796c-5.142-1.792-6.82-7.104-3.957-11.678
			c0.56-0.895,2.609-1.628,0.948-3.041c-1.498-1.274-2.86-0.136-4.018,0.883c-5.448,4.796-3.689,14.034,3.191,16.782
			C113.857,419.829,117.702,420.1,121.54,420.145z M370.621,320.443c0.4-2.429-0.66-3.829-2.961-4.779
			c-4.839-1.999-9.567-4.264-14.366-6.363c-1.098-0.48-2.686-1.905-3.414-0.596c-1.648,2.962-1.559,6.488-2.022,9.803
			c-0.181,1.295,1.077,1.586,2.153,1.811c5.575,1.165,11.186,2.195,16.703,3.593C370.088,324.766,371.021,323.53,370.621,320.443z
			 M349.781,323.484c9.174,10,26.788,17.346,36.089,15.028c-3.211-2.54-6.459-4.828-9.367-7.488
			c-2.906-2.658-6.306-3.835-10.032-4.496C361.073,325.571,355.684,324.564,349.781,323.484z M349.866,198.513
			c0.404,2.286,0.984,5.15,1.397,8.039c0.292,2.044,1.328,2.5,3.168,1.97c6.288-1.812,12.586-3.589,18.881-5.377
			c0.933-0.265,1.878-0.602,1.935-1.731c0.076-1.49-1.182-1.539-2.186-1.733c-6.882-1.332-13.769-2.64-20.655-3.955
			C350.646,195.39,349.668,195.988,349.866,198.513z M366.487,126.416c0.238,1.649-0.703,3.931,1.743,5.029
			c6.714,3.015,13.436,6.012,20.171,8.981c0.805,0.355,1.726,0.891,2.358-0.415c1.191-2.461-0.172-6.92-2.668-8.063
			c-5.947-2.724-11.944-5.336-17.909-8.023C366.485,122.259,366.496,122.235,366.487,126.416z M378.44,159.928
			c0.265,1.85,0.556,3.697,0.786,5.551c0.148,1.192,0.78,1.95,1.901,2.252c5.758,1.549,11.521,3.084,17.29,4.592
			c0.616,0.161,1.337,0.501,1.724-0.527c0.839-2.229-1.982-9.097-4.284-9.812c-4.908-1.526-9.881-2.838-14.809-4.302
			C378.892,157.04,378.231,157.91,378.44,159.928z M206.118,444.654c-1.629,0-3.258,0.004-4.887-0.001
			c-1.787-0.005-2.58,0.962-2.397,2.652c0.352,3.233,0.806,6.454,1.203,9.682c0.25,2.034,1.473,2.365,3.245,2.01
			c2.279-0.456,4.576-0.829,6.873-1.181c4.858-0.746,4.861-0.731,4.229-5.647C213.419,444.65,213.419,444.65,206.118,444.654z
			 M397.129,264.293c0.078-5.65-0.713-6.859-6.003-8.643c-2.651-0.894-5.38-1.555-8.072-2.326c-6.67-1.909-6.658-1.911-6.092,4.985
			c0.138,1.68,0.23,3.211,2.363,3.735c5.214,1.281,10.397,2.688,15.58,4.088C396.691,266.614,397.31,265.91,397.129,264.293z
			 M358.144,269.45c11.695,4.887,28.313,5.119,34.921,0.474C381.477,265.744,369.747,263.071,358.144,269.45z M379.523,306.486
			c-4.262-0.662-3.415,3.092-3.996,5.358c-0.62,2.417,1.093,3.203,3.258,3.451c3.714,0.426,7.411,1.004,11.115,1.516
			c5.468,0.756,5.286,0.731,6.006-4.836c0.344-2.66-0.484-3.6-2.951-3.858C388.538,307.655,384.137,307.054,379.523,306.486z
			 M379.172,211.795c0.265,1.621-0.796,3.931,1.859,4.879c5.043,1.799,10.086,3.597,15.131,5.393
			c0.775,0.276,1.54,0.586,2.182-0.305c1.568-2.176-0.1-7.9-2.626-8.859c-3.919-1.488-7.879-2.871-11.77-4.428
			C379.202,206.576,379.17,206.554,379.172,211.795z M342.669,410.331c-0.004,0-0.008,0-0.012,0c0,0.816,0,1.632,0,2.448
			c0,8.333-0.002,8.266,8.37,7.963c2.297-0.083,3.301-0.651,2.506-3.081c-1.013-3.101-2.115-6.193-2.82-9.369
			c-0.756-3.404-2.988-5.396-5.683-7.164c-1.546-1.014-2.362-0.832-2.361,1.161C342.67,404.97,342.669,407.65,342.669,410.331z
			 M367.979,291.64c1.844,3.496,4.955,5.878,7.281,8.889c0.727,0.941,1.511,1.842,2.756,2.001
			c5.374,0.686,10.753,1.329,17.132,2.111c-3.211-2.603-5.855-4.336-7.988-6.558C381.942,292.646,375.697,290.494,367.979,291.64z
			 M374.447,342.17c-5.552-0.316-5.555-0.124-6.278,4.816c-0.496,3.39,2.052,2.93,3.744,3.213c4.141,0.692,8.329,1.095,12.5,1.608
			c3.595,0.442,3.023-2.494,3.471-4.448c0.458-2.002,0.257-3.645-2.518-3.872C381.181,343.145,377.024,342.492,374.447,342.17z
			 M112.45,306.858c-0.016,0-0.032,0-0.047,0c0,2.33-0.03,4.66,0.012,6.99c0.022,1.199,0.342,1.963,1.919,1.581
			c7.054-1.708,9.57-5.645,7.97-12.672c-0.232-1.02-0.302-2.215-1.493-2.574c-2.534-0.763-5.307-2.372-7.681-1.321
			c-1.729,0.765-0.419,3.637-0.663,5.551C112.365,305.216,112.45,306.042,112.45,306.858z M208,52.579
			c0,3.491,0.147,6.989-0.046,10.469c-0.156,2.815,1.536,3.971,3.717,4.062c2.661,0.111,1.646-2.316,1.678-3.67
			c0.127-5.349,0.058-10.703,0.05-16.055c-0.002-1.512,0.015-3.027-0.078-4.535c-0.151-2.438-2.201-3.113-3.941-3.209
			c-2.282-0.126-1.271,2.03-1.324,3.168C207.904,46.059,208.002,49.321,208,52.579z M360.581,398.87c0,0.043,0,0.086,0,0.129
			c1.164,0,2.358-0.17,3.487,0.03c4.169,0.741,6.16-1.244,7.295-5.057c0.599-2.01,0.386-2.726-1.709-2.953
			c-4.414-0.479-8.835-0.333-13.252-0.284c-1.535,0.017-4.766,5.756-4.184,7.208c0.379,0.946,1.273,0.909,2.079,0.919
			C356.391,398.887,358.486,398.87,360.581,398.87z M243.789,404.378c-0.957-0.49-1.146-0.659-1.353-0.683
			c-19.413-2.309-31.811-13.153-38.15-31.357c-0.268-0.77-0.285-1.806-1.452-1.456c-1.413,0.423-2.721,1.282-2.35,2.971
			c0.345,1.566,0.97,3.136,1.779,4.525c7.245,12.433,17.204,21.509,31.42,25.365C236.786,404.584,239.841,404.688,243.789,404.378z
			 M177.591,438.234c1.86,0,3.729,0.112,5.579-0.027c2.623-0.196,3.977-1.437,4.402-4.341c0.598-4.093-2.858-3.74-4.745-4.81
			c-6.056-3.434-6.126-3.311-9.314,2.722C170.046,438.337,170.046,438.337,177.591,438.234z M112.419,408.644
			c2.515,1.589,4.517,1.928,6.511,2.336c4.534,0.927,8.835,0.319,12.804-2.042c1.41-0.839,2.743-2.127,2.395-3.956
			c-0.336-1.764-2.077-1.966-3.563-2.318c-5.103-1.208-9.974-0.458-14.886,1.493c2.403,1.697,5.705,0.336,7.87,3.083
			C119.878,407.703,116.589,408.118,112.419,408.644z M216.485,56.024c0.01,0,0.02,0,0.031,0c0,3.73,0.013,7.46-0.005,11.19
			c-0.01,1.984,1.333,2.687,2.923,2.813c2.027,0.161,1.685-1.56,1.706-2.738c0.069-3.846,0.038-7.693,0.032-11.54
			c-0.005-3.264-0.021-6.527-0.048-9.791c-0.017-2.104-1.512-2.952-3.203-2.996c-2.053-0.053-1.37,1.807-1.401,2.921
			C216.424,49.262,216.485,52.644,216.485,56.024z M206.522,203.809c1.172-0.215,2.661-0.459,4.138-0.764
			c1.818-0.375,3.651-0.715,5.432-1.227c1.922-0.552,2.994-1.953,2.585-3.946c-0.425-2.072-1.917-3.274-4.075-2.932
			c-3.206,0.508-6.393,1.182-9.549,1.947c-2.11,0.511-3.078,2.038-2.703,4.207C202.717,203.215,204.26,203.836,206.522,203.809z
			 M154.445,411.498c0.699,0,1.407-0.076,2.094,0.013c3.235,0.419,3.957-0.679,2.458-3.607c-1.003-1.958-1.609-4.116-2.445-6.164
			c-0.564-1.383-0.658-3.555-1.975-3.88c-1.583-0.39-2.02,1.868-2.989,2.935c-1.014,1.117-1.818,2.424-2.824,3.55
			c-1.779,1.99-0.456,4.058-0.033,5.956c0.396,1.776,2.309,1.046,3.618,1.175C153.042,411.546,153.747,411.489,154.445,411.498z
			 M256.951,89.139c0,7.07,0.384,7.282,6.929,5.264c3.529-1.088,2.675-3.836,2.866-6.275c0.177-2.254-0.475-3.525-3.004-4.173
			C256.911,82.206,256.951,82.05,256.951,89.139z M216.035,208.228c-1.062-0.748,1.672-3.718-1.953-3.728
			c-5.848-0.016-7.768,1.153-7.617,4.999c0.07,1.781-1.222,4.647,2.46,4.597C215.039,214.011,216.012,213.256,216.035,208.228z
			 M320.11,453.009c-5.637,0.527-11.273,1.071-16.913,1.573c-1.755,0.156-2.531,1.384-2.54,2.798
			c-0.011,1.868,1.689,1.127,2.68,1.178c2.199,0.114,4.437-0.191,6.608,0.084C314.582,459.229,317.477,456.553,320.11,453.009z
			 M231.162,319.734c1.224-0.222,2.394-0.311,3.479-0.661c1.383-0.446,2.548-1.35,2.657-2.907c0.117-1.651-1.383-2.074-2.533-2.439
			c-2.09-0.665-4.236-1.278-6.403-1.547c-2.475-0.306-3.962,1.267-4.425,3.523c-0.489,2.385,1.457,2.852,3.18,3.268
			C228.463,319.296,229.839,319.49,231.162,319.734z M219.557,328.772c2.9-0.452,5.408-2.208,7.09-5.012
			c0.934-1.557,0.015-2.593-1.526-3.179c-3.552-1.349-7.379,0.38-8.775,3.984C215.403,326.998,216.568,328.748,219.557,328.772z
			 M217.997,333.187c-0.036-0.774-0.705-1.539-1.573-2.167c-0.834-0.603-1.755-0.725-2.564-0.049
			c-2.234,1.868-4.272,3.927-5.263,6.75c-0.534,1.521,0.037,2.49,1.745,2.573C212.828,340.417,217.847,335.986,217.997,333.187z
			 M266.735,77.025c0-0.661,0.012-1.01-0.002-1.358c-0.063-1.55-0.054-3.123-2.274-3.163c-2.721-0.049-7.224,2.141-7.351,3.622
			c-0.109,1.265,0.585,1.968,1.685,2.305c1.442,0.441,2.954,0.683,4.353,1.225C266.19,80.835,267.269,79.8,266.735,77.025z
			 M167.211,291.099c-0.004,0-0.008,0-0.012,0c0,1.282-0.105,2.576,0.033,3.843c0.11,1.004-0.74,2.719,1.067,2.78
			c1.611,0.054,2.851-0.918,2.841-2.848c-0.016-3.03,0.009-6.06,0-9.09c-0.004-1.274-0.262-2.374-1.91-2.283
			c-1.487,0.082-1.984,1.052-2.01,2.355C167.185,287.602,167.211,289.351,167.211,291.099z M211.415,188.17
			c-2.15,0.474-4.325,0.859-6.441,1.454c-1.292,0.363-2.383,1.26-2.084,2.788c0.309,1.584,1.482,2.368,3.1,2.094
			c2.171-0.368,4.326-0.84,6.473-1.333c1.407-0.323,2.347-1.18,2.043-2.731C214.191,188.839,213.1,188.109,211.415,188.17z
			 M185.991,327.088c0.365,2.103,0.036,4.987,3.154,4.839c2.848-0.136,3.485-2.765,3.541-5.156c0.056-2.401-0.959-4.639-3.621-4.622
			C185.985,322.166,186.321,324.974,185.991,327.088z M223.811,200.715c-1.092,0.346-2.703,0.677-2.082,2.378
			c0.748,2.048,1.812,4.038,3.063,5.827c0.922,1.319,2.347,0.503,3.465-0.08c1.205-0.629,0.649-1.535,0.19-2.368
			c-0.785-1.424-1.57-2.848-2.361-4.268C225.618,201.363,225.073,200.623,223.811,200.715z"/>
		<path style="fill:#7B0139;" d="M193.93,196.504c0.005,4.785-0.114,9.574,0.052,14.353c0.092,2.648-0.945,3.793-3.503,4.125
			c-3.349,0.435-6.674,1.079-9.994,1.717c-2.153,0.414-3.007-0.396-2.998-2.553c0.039-9.92,0.038-19.84,0.001-29.759
			c-0.007-1.792,0.734-2.922,2.435-3.326c3.857-0.916,7.732-1.758,11.596-2.649c2.037-0.47,2.415,0.695,2.411,2.337
			C193.917,186.001,193.925,191.252,193.93,196.504z"/>
		<path style="fill:#7B0139;" d="M174.808,200.329c0,4.673-0.067,9.348,0.028,14.02c0.049,2.419-0.937,3.739-3.333,4.034
			c-11.254,1.387-10.064,2.945-10.088-8.017c-0.015-7.01,0.073-14.021-0.038-21.03c-0.044-2.743,0.718-4.166,3.695-4.809
			c9.777-2.112,9.748-2.245,9.748,7.74c0,2.687,0,5.374,0,8.062C174.815,200.329,174.811,200.329,174.808,200.329z"/>
		<path style="fill:#7B0139;" d="M174.809,127.005c-0.001,4.434-0.053,8.869,0.021,13.302c0.035,2.071-0.762,3.223-2.818,3.738
			c-2.483,0.621-4.917,1.452-7.353,2.251c-1.978,0.649-3.221,0.294-3.22-2.077c0.004-9.335-0.003-18.669,0.013-28.004
			c0.002-1.211,0.248-2.4,1.573-2.855c3.084-1.06,6.164-2.147,9.296-3.044c2.331-0.667,2.46,1.113,2.474,2.687
			C174.836,117.67,174.81,122.338,174.809,127.005z"/>
		<path style="fill:#7B0139;" d="M174.809,89.114c-0.001,4.314-0.054,8.629,0.022,12.941c0.038,2.168-0.743,3.483-2.918,4.098
			c-2.459,0.694-4.856,1.615-7.268,2.473c-2.012,0.715-3.203,0.23-3.203-2.087c-0.002-9.094,0.01-18.187,0.001-27.281
			c-0.002-1.823,1.065-2.695,2.629-3.254c2.633-0.942,5.294-1.83,7.855-2.945c2.328-1.013,2.914-0.09,2.896,2.065
			C174.782,79.787,174.81,84.451,174.809,89.114z"/>
		<path style="fill:#7B0139;" d="M158.175,203.511c0,4.672-0.093,9.347,0.041,14.016c0.063,2.205-0.709,3.172-2.914,3.415
			c-2.662,0.294-5.289,0.895-7.933,1.36c-1.626,0.286-2.307-0.275-2.295-2.047c0.064-9.578,0.064-19.157-0.003-28.735
			c-0.014-1.911,0.819-2.747,2.568-3.087c2.406-0.468,4.822-0.936,7.181-1.592c2.827-0.787,3.489,0.415,3.412,3.006
			c-0.135,4.551-0.038,9.11-0.038,13.665C158.188,203.511,158.181,203.511,158.175,203.511z"/>
		<path style="fill:#7B0139;" d="M158.157,131.216c-0.004,4.442-0.164,8.893,0.059,13.324c0.125,2.486-0.841,3.643-3.082,4.258
			c-10.624,2.916-9.724,4.308-9.765-6.96c-0.024-6.547,0.071-13.095-0.035-19.64c-0.04-2.486,0.832-3.933,3.284-4.582
			c2.255-0.597,4.451-1.427,6.655-2.205c2.052-0.724,3.013-0.335,2.932,2.128C158.053,122.094,158.161,126.657,158.157,131.216z"/>
		<path style="fill:#7B0139;" d="M174.808,52.247c0,4.201-0.064,8.403,0.027,12.602c0.047,2.171-0.803,3.54-2.833,4.265
			c-2.635,0.942-5.265,1.903-7.872,2.921c-1.842,0.719-2.678,0.064-2.68-1.81c-0.008-8.634-0.002-17.269,0.011-25.903
			c0.002-1.095,0.251-2.233,1.303-2.697c3.408-1.501,6.819-3.031,10.339-4.227c1.779-0.605,1.674,1.145,1.686,2.247
			C174.835,43.845,174.808,48.046,174.808,52.247z"/>
		<path style="fill:#7B0139;" d="M174.811,163.482c-0.004,4.093-0.037,8.187,0.01,12.28c0.024,2.043-0.681,3.298-2.866,3.665
			c-2.417,0.406-4.825,0.942-7.182,1.615c-2.636,0.752-3.375-0.409-3.365-2.795c0.034-8.07,0.036-16.14-0.007-24.21
			c-0.01-1.871,0.498-3.052,2.548-3.501c2.503-0.547,4.955-1.36,7.394-2.166c2.726-0.9,3.577,0.174,3.502,2.831
			C174.73,155.293,174.815,159.389,174.811,163.482z"/>
		<path style="fill:#7B0139;" d="M158.165,94.725c-0.004,4.312-0.111,8.628,0.041,12.935c0.075,2.123-0.681,3.257-2.686,3.815
			c-2.467,0.686-4.912,1.467-7.335,2.296c-1.838,0.629-2.747-0.076-2.754-1.871c-0.037-8.973-0.021-17.946,0.001-26.918
			c0.003-1.279,0.637-2.191,1.866-2.685c2.81-1.13,5.61-2.284,8.411-3.436c1.906-0.785,2.511-0.033,2.483,1.88
			C158.124,85.401,158.169,90.063,158.165,94.725z"/>
		<path style="fill:#7B0139;" d="M158.188,58.892c0,4.084-0.041,8.169,0.021,12.253c0.023,1.527-0.218,2.795-1.788,3.425
			c-3.03,1.215-6.059,2.434-9.098,3.627c-1.74,0.683-2.254-0.045-2.245-1.785c0.04-8.285,0.012-16.57-0.035-24.855
			c-0.01-1.849,0.684-3.12,2.431-3.821c2.707-1.086,5.404-2.195,8.089-3.333c1.96-0.831,2.74-0.382,2.664,1.888
			C158.088,50.487,158.188,54.691,158.188,58.892z"/>
		<path style="fill:#7B0139;" d="M158.123,167.747c0,3.845-0.056,7.69,0.021,11.533c0.045,2.233-0.826,3.461-3.093,3.844
			c-1.946,0.329-3.907,0.761-5.755,1.438c-2.922,1.07-4.021,0.253-3.965-2.88c0.133-7.337,0.11-14.678,0.066-22.017
			c-0.016-2.694,0.997-4.087,3.754-4.893c9.019-2.637,8.983-2.762,8.983,6.683c0,2.097,0,4.194,0,6.291
			C158.13,167.747,158.126,167.747,158.123,167.747z"/>
		<path style="fill:#7B0139;" d="M142.482,136.83c0.001,4.205-0.083,8.413,0.035,12.614c0.064,2.273-0.906,3.498-3.028,3.979
			c-0.455,0.103-0.917,0.191-1.358,0.339c-7.227,2.423-6.956,2.736-6.933-5.458c0.02-7.008,0.1-14.019-0.058-21.025
			c-0.065-2.904,0.853-4.379,3.783-5.238c8.205-2.405,7.526-3.125,7.556,5.676C142.489,130.756,142.481,133.793,142.482,136.83z"/>
		<path style="fill:#7B0139;" d="M131.246,208.424c0.004-4.208,0.087-8.418-0.027-12.623c-0.067-2.453,0.98-3.601,3.342-4.023
			c8.776-1.57,7.866-2.752,7.956,6.314c0.069,6.896-0.119,13.797,0.071,20.688c0.09,3.274-1.222,4.53-4.349,4.963
			c-7.022,0.974-7.004,1.093-6.997-6.201C131.244,214.502,131.242,211.463,131.246,208.424z"/>
		<path style="fill:#7B0139;" d="M142.494,100.235c0,3.859-0.132,7.724,0.044,11.575c0.128,2.806-0.945,4.189-3.654,5.018
			c-7.692,2.354-7.657,2.457-7.647-5.656c0.007-6.198,0.195-12.403-0.069-18.589c-0.147-3.452,1.291-5.036,4.348-6.134
			c7.004-2.516,6.966-2.622,6.967,4.666c0,3.04,0,6.081,0,9.121C142.485,100.235,142.489,100.235,142.494,100.235z"/>
		<path style="fill:#7B0139;" d="M142.516,65.656c0,3.738-0.078,7.479,0.027,11.214c0.07,2.484-0.96,3.75-3.336,4.57
			c-8.032,2.772-8.004,2.855-8.004-5.661c0-5.607,0.177-11.223-0.068-16.819c-0.14-3.191,0.926-4.87,3.949-5.992
			c7.829-2.905,7.384-4.356,7.444,4.978c0.016,2.57,0.003,5.14,0.003,7.71C142.526,65.656,142.521,65.656,142.516,65.656z"/>
		<path style="fill:#7B0139;" d="M142.479,171.561c-0.002,3.498-0.123,7.002,0.036,10.493c0.133,2.926-0.933,4.449-3.896,5.152
			c-6.869,1.629-6.843,1.75-6.847-5.317c-0.003-5.831,0.209-11.672-0.082-17.488c-0.171-3.416,1.106-5.003,4.245-6.028
			c6.272-2.047,6.538-1.978,6.545,4.442C142.483,165.731,142.481,168.646,142.479,171.561z"/>
		<path style="fill:#7B0139;" d="M127.784,154.932c0,5.31,0.028,10.62-0.017,15.929c-0.014,1.606-0.82,2.183-2.517,1.852
			c-4.85-0.948-5.592-2.33-3.538-6.821c1.705-3.727,3.339-7.487,5.004-11.232C127.071,154.75,127.427,154.841,127.784,154.932z"/>
		<path style="fill:#7B0139;" d="M323.141,239.997c-36.345,3.271-72.336,6.51-108.662,9.779c0.66-2.145,2.321-2.139,3.449-2.722
			c13.179-6.811,26.422-13.498,39.579-20.352c3.303-1.721,6.443-2.063,10.083-1.153c17.445,4.357,34.943,8.503,52.41,12.771
			C320.936,238.547,322.117,238.386,323.141,239.997z M253.899,243.29c0.609-0.045,0.961-0.053,1.307-0.1
			c2.25-0.305,5.388,0.27,6.361-1.651c0.749-1.477-1.985-3.36-2.977-5.179c-0.111-0.203-0.268-0.382-0.403-0.571
			c-3.473-4.856-3.477-4.865-8.789-2.361c-1.681,0.792-4.269,1.273-4.78,2.557c-0.791,1.985,2.247,2.669,3.239,4.318
			C249.183,242.509,250.987,244.583,253.899,243.29z M269.596,229.55c2.812,2.848,4.398,5.886,4.96,9.416
			c0.266,1.669,1.293,2.035,2.761,1.845c1.378-0.178,2.437-0.6,2.552-2.276C280.203,233.656,275.023,228.833,269.596,229.55z
			 M307.099,238.813c0.02-0.331,0.039-0.662,0.059-0.993c-4.715-0.956-9.425-1.941-14.149-2.848c-1.144-0.22-2.101,0.191-2.24,1.548
			c-0.146,1.421,0.538,2.266,1.957,2.278C297.516,238.838,302.307,238.813,307.099,238.813z"/>
		<path style="fill:#7B0139;" d="M120.193,258.425c0.129-1.401,0.828-1.648,1.442-1.945c13.132-6.354,26.286-12.661,39.381-19.089
			c2.082-1.022,3.835-1.007,5.957-0.161c10.512,4.187,21.084,8.223,31.623,12.342c0.804,0.314,1.903,0.277,2.442,2.21
			C174.046,254.001,147.229,256.204,120.193,258.425z M160.176,246.89c-0.019,0-0.038,0-0.056,0c0-1.167,0.069-2.339-0.023-3.499
			c-0.067-0.837,0.637-2.193-0.633-2.377c-1.142-0.165-2.401,0.666-2.645,1.886c-0.596,2.99-0.375,6.04-0.142,9.061
			c0.088,1.139,0.964,1.507,2.031,1.42c1.21-0.098,1.501-0.871,1.477-1.942C160.15,249.924,160.176,248.407,160.176,246.89z"/>
		<path style="fill:#7B0139;" d="M258.359,224.53c-15.592,7.777-31.183,15.555-46.738,23.314c-1.056-1.3-0.055-1.991,0.349-2.706
			c4.998-8.838,10.061-17.64,15.046-26.485c0.953-1.691,1.948-2.793,4.128-2.21c8.998,2.407,18.016,4.742,27.027,7.103
			C258.232,223.874,258.295,224.202,258.359,224.53z M240.654,221.798c-4.081,0.639-8.328,0.677-12.319,2.093
			c-2.492,0.884-3.326,2.928-2.7,5.357c0.638,2.478,2.698,1.724,4.348,1.424c2.946-0.536,5.733-1.393,8.875-0.344
			c3.371,1.126,6.411-0.71,9.059-2.628c1.85-1.34,1.494-3.078-0.459-4.203C245.395,222.31,243.024,222.148,240.654,221.798z"/>
		<path style="fill:#7B0139;" d="M193.118,222.607c1.515-0.341,1.955,0.532,2.326,1.401c3.256,7.617,6.499,15.239,9.726,22.868
			c0.263,0.623,0.65,1.348,0.099,1.977c-0.723,0.824-1.504,0.193-2.236-0.076c-11.275-4.144-22.548-8.296-33.821-12.446
			c-0.659-0.242-1.436-0.439-1.586-1.212c-0.172-0.892,0.639-1.118,1.263-1.407c7.728-3.581,15.457-7.162,23.189-10.734
			C192.499,222.783,192.955,222.664,193.118,222.607z M194.56,227.572c-0.18,0.039-0.36,0.077-0.54,0.116
			c0,3.328-0.031,6.656,0.007,9.983c0.066,5.821,1.696,7.454,8.05,7.848C199.534,239.449,197.047,233.511,194.56,227.572z"/>
		<path style="fill:#7B0139;" d="M207.709,246.698c-2.624-4.173-3.949-9.045-6.064-13.543c-1.489-3.168-2.821-6.41-4.241-9.611
			c-0.864-1.95-0.406-3.073,1.84-3.418c7.843-1.206,15.673-2.497,23.517-3.699c0.868-0.133,2.036-0.613,2.631,0.262
			c0.621,0.914-0.366,1.722-0.816,2.495c-5.057,8.677-10.132,17.344-15.21,26.009C209.026,245.77,208.834,246.509,207.709,246.698z
			 M210.706,228.66c-0.265-0.041-0.53-0.082-0.796-0.123c-0.085-1.851-0.149-3.703-0.267-5.551
			c-0.045-0.707-0.201-1.473-1.144-1.442c-0.874,0.029-1.225,0.736-1.186,1.454c0.3,5.619,0.655,11.235,0.992,16.851
			c2.683-3.272,4.529-6.617,6.467-9.907c1.239-2.104,1.623-4.352,1.459-6.729c-0.077-1.115,0.213-2.558-1.39-2.806
			c-1.63-0.252-2.709,0.664-3.055,2.227C211.347,224.625,211.059,226.65,210.706,228.66z M205.591,229.113
			c-0.224-1.628-0.471-3.243-0.665-4.864c-0.233-1.951-1.537-2.183-3.056-1.83c-1.612,0.375-2.418,1.327-1.718,3.087
			c0.603,1.517,1.112,3.071,1.726,4.583c0.437,1.076,0.89,2.39,2.366,2.137C206.095,231.911,205.479,230.305,205.591,229.113z"/>
	</g>
</g>
</svg>
